<svg width="36" height="36" viewBox="0 0 36 36" xmlns="http://www.w3.org/2000/svg">
  <g fill="none" fill-rule="evenodd">
    <circle fill="#007C75" cx="18" cy="18" r="18"/>
    <path d="M17.952 8.96c1.12 0 2.076.18 2.868.54.792.36 1.388.844 1.788 1.452.4.608.6 1.28.6 2.016 0 .656-.116 1.216-.348 1.68-.232.464-.508.84-.828 1.128-.32.288-.744.624-1.272 1.008-.64.432-1.112.82-1.416 1.164-.304.344-.456.788-.456 1.332v.6h-3.456v-.744c0-.752.116-1.388.348-1.908.232-.52.512-.928.84-1.224.328-.296.74-.62 1.236-.972.48-.32.832-.6 1.056-.84.224-.24.336-.536.336-.888 0-.432-.148-.768-.444-1.008-.296-.24-.708-.36-1.236-.36-1.008 0-1.944.488-2.808 1.464l-2.424-1.872c1.456-1.712 3.328-2.568 5.616-2.568zm-.744 13.104c.592 0 1.1.212 1.524.636.424.424.636.932.636 1.524 0 .608-.212 1.124-.636 1.548a2.079 2.079 0 0 1-1.524.636c-.592 0-1.1-.212-1.524-.636a2.107 2.107 0 0 1-.636-1.548c0-.592.212-1.1.636-1.524a2.079 2.079 0 0 1 1.524-.636z" fill="#FFF" fill-rule="nonzero"/>
  </g>
</svg>
