<?xml version="1.0" encoding="UTF-8"?>
<svg width="44px" height="44px" viewBox="0 0 44 44" version="1.1" xmlns="http://www.w3.org/2000/svg" xmlns:xlink="http://www.w3.org/1999/xlink">
    <title>Group 12</title>
    <defs>
        <polygon id="path-1" points="0 0 44 0 44 44.0000862 0 44.0000862"></polygon>
    </defs>
    <g id="Symbols" stroke="none" stroke-width="1" fill="none" fill-rule="evenodd">
        <g id="Footer/desktop" transform="translate(-1564.000000, -44.000000)">
            <g id="Group-12" transform="translate(1564.000000, 44.000000)">
                <path d="M14.2979027,25.3320157 L25.7721027,25.3320157 C26.6943238,25.3320157 27.4422104,26.0799022 27.4422104,27.0021234 C27.4422104,27.9243445 26.6943238,28.6722311 25.7721027,28.6722311 L14.2979027,28.6722311 C13.3753943,28.6722311 12.627795,27.9243445 12.627795,27.0021234 C12.627795,26.0799022 13.3753943,25.3320157 14.2979027,25.3320157 L14.2979027,25.3320157 Z M14.2979027,18.6860496 L30.1657928,18.6860496 C31.0883011,18.6860496 31.8359005,19.4339362 31.8359005,20.3561574 C31.8359005,21.2786657 31.0883011,22.0262651 30.1657928,22.0262651 L14.2979027,22.0262651 C13.3753943,22.0262651 12.627795,21.2786657 12.627795,20.3561574 C12.627795,19.4339362 13.3753943,18.6860496 14.2979027,18.6860496 L14.2979027,18.6860496 Z M9.78473457,31.5150043 C9.78473457,32.4708286 10.5624907,33.2482975 11.518315,33.2482975 L32.9539966,33.2482975 C33.909821,33.2482975 34.6872899,32.4708286 34.6872899,31.5150043 L34.6872899,26.996092 L30.3323727,28.4878443 C30.0848004,28.5728575 29.8478548,28.3356247 29.9331552,28.0880524 L31.557597,23.3721163 L34.6872899,20.2424235 L34.6872899,14.9032485 L9.78473457,14.9032485 L9.78473457,31.5150043 Z" id="Fill-1" fill="#d9d9d6"></path>
                <path d="M16.8285682,13.2765377 C17.5813373,13.2765377 18.191939,12.6662232 18.191939,11.9131669 C18.191939,11.1603978 17.5813373,10.5500833 16.8285682,10.5500833 C16.0755119,10.5500833 15.4651974,11.1603978 15.4651974,11.9131669 C15.4651974,12.6662232 16.0755119,13.2765377 16.8285682,13.2765377" id="Fill-3" fill="#d9d9d6"></path>
                <path d="M13.0335895,13.2765377 C13.7866458,13.2765377 14.3969603,12.6662232 14.3969603,11.9131669 C14.3969603,11.1603978 13.7866458,10.5500833 13.0335895,10.5500833 C12.2808204,10.5500833 11.6702187,11.1603978 11.6702187,11.9131669 C11.6702187,12.6662232 12.2808204,13.2765377 13.0335895,13.2765377" id="Fill-5" fill="#d9d9d6"></path>
                <g id="Group-9">
                    <mask id="mask-2" fill="white">
                        <use xlink:href="#path-1"></use>
                    </mask>
                    <g id="Clip-8"></g>
                    <path d="M35.5983386,26.3273884 L35.5983386,31.5149181 C35.5983386,32.9753648 34.4144721,34.1592314 32.9540254,34.1592314 L11.5183437,34.1592314 C10.057897,34.1592314 8.87374323,32.9753648 8.87374323,31.5149181 L8.87374323,11.5678294 C8.87374323,10.1073827 10.057897,8.92322896 11.5183437,8.92322896 L11.7259942,8.92322896 L32.5157477,8.92322896 L32.9540254,8.92322896 C34.4144721,8.92322896 35.5983386,10.1073827 35.5983386,11.5678294 L35.5983386,19.3313172 L39.5069364,15.4227195 L43.0048283,18.9208987 L35.5983386,26.3273884 Z M40.4690792,14.4605766 L42.0288995,12.9007563 C38.5666212,5.29264744 30.903943,0 21.9999569,0 C9.84967203,0 -8.61620486e-05,9.84975819 -8.61620486e-05,22.0000431 C-8.61620486e-05,34.150328 9.84967203,44.0000862 21.9999569,44.0000862 C34.1502418,44.0000862 44,34.150328 44,22.0000431 C44,20.4712411 43.8434723,18.9789144 43.5465004,17.5379978 L40.4690792,14.4605766 Z" id="Fill-7" fill="#d9d9d6" mask="url(#mask-2)"></path>
                </g>
                <path d="M20.6235756,13.2765377 C21.3766319,13.2765377 21.9869464,12.6662232 21.9869464,11.9131669 C21.9869464,11.1603978 21.3766319,10.5500833 20.6235756,10.5500833 C19.8708065,10.5500833 19.2602048,11.1603978 19.2602048,11.9131669 C19.2602048,12.6662232 19.8708065,13.2765377 20.6235756,13.2765377" id="Fill-10" fill="#d9d9d6"></path>
            </g>
        </g>
    </g>
</svg>