<?xml version="1.0" encoding="UTF-8"?>
<svg width="44px" height="44px" viewBox="0 0 44 44" version="1.1" xmlns="http://www.w3.org/2000/svg" xmlns:xlink="http://www.w3.org/1999/xlink">
    <title>fsa-twitter</title>
    <g id="Symbols" stroke="none" stroke-width="1" fill="none" fill-rule="evenodd">
        <g id="Footer/desktop" transform="translate(-1316.000000, -44.000000)" fill="#d9d9d6">
            <g id="fsa-twitter" transform="translate(1316.000000, 44.000000)">
                <path d="M0,22 C0,9.9 9.9,0 22,0 C34.1,0 44,9.9 44,22 C44,34.1 34.1,44 22,44 C9.9,44 0,34.1 0,22 Z M21.34,17.93 L21.34,18.7 L20.57,18.59 C17.82,18.26 15.29,17.05 13.2,14.96 L12.21,13.97 L11.99,14.74 C11.44,16.39 11.77,18.15 12.98,19.36 C13.64,20.02 13.42,20.13 12.43,19.69 C12.1,19.58 11.77,19.47 11.66,19.47 C11.55,19.58 11.88,21.01 12.21,21.56 C12.65,22.33 13.42,23.1 14.3,23.54 L15.07,23.87 L14.19,23.87 C13.31,23.87 13.31,23.87 13.42,24.2 C13.75,25.19 14.96,26.29 16.28,26.73 L17.27,27.06 L16.39,27.61 C15.18,28.38 13.75,28.71 12.32,28.71 C11.66,28.71 11.11,28.82 11.11,28.82 C11.11,28.93 12.98,29.81 14.08,30.14 C17.38,31.13 21.23,30.69 24.2,29.04 C26.29,27.83 28.38,25.41 29.37,22.99 C29.92,21.78 30.47,19.47 30.47,18.37 C30.47,17.71 30.47,17.6 31.35,16.72 C31.9,16.17 32.34,15.73 32.45,15.51 C32.56,15.18 32.56,15.18 31.79,15.51 C30.47,15.95 30.25,15.95 30.91,15.18 C31.35,14.63 32.01,13.75 32.01,13.53 C32.01,13.53 31.79,13.53 31.57,13.75 C31.24,13.86 30.69,14.19 30.25,14.3 L29.37,14.52 L28.6,13.97 C28.16,13.64 27.61,13.42 27.28,13.31 C26.51,13.09 25.3,13.09 24.64,13.42 C22.44,14.08 21.23,15.95 21.34,17.93 Z" id="Shape"></path>
            </g>
        </g>
    </g>
</svg>