<?xml version="1.0" encoding="UTF-8"?>
<svg width="44px" height="44px" viewBox="0 0 44 44" version="1.1" xmlns="http://www.w3.org/2000/svg" xmlns:xlink="http://www.w3.org/1999/xlink">
    <title>Shape</title>
    <g id="Symbols" stroke="none" stroke-width="1" fill="none" fill-rule="evenodd">
        <g id="Footer/desktop" transform="translate(-1378.000000, -44.000000)" fill="#FFFFFF">
            <g id="fsa-linkedin" transform="translate(1378.000000, 44.000000)">
                <path d="M0,22 C0,9.9 9.9,0 22,0 C34.1,0 44,9.9 44,22 C44,34.1 34.1,44 22,44 C9.9,44 0,34.1 0,22 Z M15.51,18.26 L10.56,18.26 L10.56,33.22 L15.51,33.22 L15.51,18.26 L15.51,18.26 Z M15.84,13.64 C15.84,12.21 14.74,11 13.09,11 C11.33,11 10.23,12.1 10.23,13.64 C10.23,15.07 11.33,16.28 12.98,16.28 L12.98,16.28 C14.74,16.17 15.84,15.07 15.84,13.64 Z M33.55,24.64 C33.55,20.02 31.13,17.93 27.83,17.93 C25.19,17.93 23.98,19.36 23.32,20.35 L23.32,18.26 L18.37,18.26 C18.48,19.69 18.37,33.22 18.37,33.22 L23.32,33.22 L23.32,24.86 C23.32,24.42 23.32,23.98 23.43,23.65 C23.76,22.77 24.64,21.78 25.96,21.78 C27.72,21.78 28.49,23.1 28.49,25.19 L28.49,33.22 L33.44,33.22 C33.55,33.22 33.55,24.64 33.55,24.64 Z" id="Shape"></path>
            </g>
        </g>
    </g>
</svg>