<?xml version="1.0" encoding="UTF-8"?>
<svg width="44px" height="44px" viewBox="0 0 44 44" version="1.1" xmlns="http://www.w3.org/2000/svg" xmlns:xlink="http://www.w3.org/1999/xlink">
    <title>fsa-youtube</title>
    <g id="Symbols" stroke="none" stroke-width="1" fill="none" fill-rule="evenodd">
        <g id="Footer/desktop" transform="translate(-1440.000000, -44.000000)" fill="#d9d9d6">
            <g id="fsa-youtube" transform="translate(1440.000000, 44.000000)">
                <path d="M0,22 C0,9.9 9.9,0 22,0 C34.1,0 44,9.9 44,22 C44,34.1 34.1,44 22,44 C9.9,44 0,34.1 0,22 Z M33.55,17.6 C33.55,17.6 33.33,15.95 32.67,15.18 C31.79,14.19 30.8,14.19 30.36,14.19 C27.06,13.97 22.11,13.97 22.11,13.97 L22.11,13.97 C22.11,13.97 17.16,13.97 13.86,14.19 C13.42,14.3 12.43,14.3 11.55,15.18 C10.78,15.95 10.45,17.6 10.45,17.6 C10.45,17.6 10.23,19.58 10.23,21.45 L10.23,23.32 C10.23,25.3 10.45,27.17 10.45,27.17 C10.45,27.17 10.67,28.82 11.33,29.59 C12.21,30.58 13.42,30.47 13.97,30.58 C15.95,30.69 22,30.8 22,30.8 C22,30.8 26.95,30.8 30.25,30.58 C30.69,30.58 31.68,30.47 32.56,29.59 C33.22,28.82 33.44,27.17 33.44,27.17 C33.44,27.17 33.66,25.19 33.66,23.32 L33.66,21.45 C33.77,19.47 33.55,17.6 33.55,17.6 Z" id="Shape"></path>
                <polygon id="Path" points="19.8 25.85 19.8 19.14 26.18 22.55"></polygon>
            </g>
        </g>
    </g>
</svg>