<?xml version="1.0" encoding="UTF-8"?>
<svg width="44px" height="44px" viewBox="0 0 44 44" version="1.1" xmlns="http://www.w3.org/2000/svg" xmlns:xlink="http://www.w3.org/1999/xlink">
    <title>fsa-instagram</title>
    <g id="Symbols" stroke="none" stroke-width="1" fill="none" fill-rule="evenodd">
        <g id="Footer/desktop" transform="translate(-1502.000000, -44.000000)" fill="#FFFFFF">
            <g id="fsa-instagram" transform="translate(1502.000000, 44.000000)">
                <path d="M22,0 C9.9,0 0,9.9 0,22 C0,34.1 9.9,44 22,44 C34.1,44 44,34.1 44,22 C44,9.9 34.1,0 22,0 Z M31.9,26.07 C31.9,26.84 31.68,27.72 31.46,28.49 C30.91,29.81 29.92,30.91 28.6,31.35 C27.83,31.68 27.06,31.79 26.18,31.79 C25.08,31.79 24.75,31.79 22.11,31.79 C19.47,31.79 19.03,31.79 18.04,31.79 C17.27,31.79 16.39,31.57 15.62,31.35 C14.3,30.8 13.2,29.81 12.76,28.49 C12.43,27.72 12.32,26.95 12.32,26.07 C12.32,24.97 12.21,24.64 12.21,22 C12.21,19.36 12.21,18.92 12.32,17.93 C12.32,17.16 12.54,16.28 12.76,15.51 C13.31,14.19 14.3,13.09 15.62,12.65 C16.39,12.32 17.16,12.21 18.04,12.21 C19.14,12.21 19.47,12.1 22.11,12.1 C24.75,12.1 25.19,12.1 26.18,12.21 C26.95,12.21 27.83,12.43 28.6,12.65 C29.92,13.2 31.02,14.19 31.46,15.51 C31.79,16.28 31.9,17.05 31.9,17.93 C31.9,19.03 31.9,19.36 31.9,22 C31.9,24.64 31.9,25.08 31.9,26.07 Z M22,16.94 C19.14,16.94 16.94,19.25 16.94,22 C16.94,24.75 19.25,27.06 22,27.06 C24.75,27.06 27.06,24.75 27.06,22 C27.06,19.25 24.86,16.94 22,16.94 C22,16.94 22,16.94 22,16.94 Z M22,25.3 C20.13,25.3 18.7,23.87 18.7,22 C18.7,20.13 20.13,18.7 22,18.7 C23.87,18.7 25.3,20.13 25.3,22 C25.3,23.87 23.87,25.3 22,25.3 Z M28.49,16.72 C28.49,17.38 27.94,17.93 27.28,17.93 C26.62,17.93 26.07,17.38 26.07,16.72 C26.07,16.06 26.62,15.51 27.28,15.51 L27.28,15.51 C27.94,15.51 28.49,16.06 28.49,16.72 Z" id="Shape"></path>
            </g>
        </g>
    </g>
</svg>