<?xml version="1.0" encoding="UTF-8"?>
<svg width="44px" height="44px" viewBox="0 0 44 44" version="1.1" xmlns="http://www.w3.org/2000/svg" xmlns:xlink="http://www.w3.org/1999/xlink">
    <title>fsa-facebook</title>
    <g id="Symbols" stroke="none" stroke-width="1" fill="none" fill-rule="evenodd">
        <g id="Footer/desktop" transform="translate(-1254.000000, -44.000000)" fill="#FFFFFF">
            <g id="fsa-facebook" transform="translate(1254.000000, 44.000000)">
                <path d="M0,22 C0,9.9 9.9,0 22,0 C34.1,0 44,9.9 44,22 C44,34.1 34.1,44 22,44 C9.9,44 0,34.1 0,22 Z M23.54,34.21 L23.54,22.22 L26.84,22.22 L27.28,18.04 L23.54,18.04 L23.54,15.95 C23.54,14.85 23.65,14.3 25.19,14.3 L27.28,14.3 L27.28,10.23 L23.98,10.23 C20.02,10.23 18.59,12.21 18.59,15.62 L18.59,18.15 L16.17,18.15 L16.17,22.33 L18.59,22.33 L18.59,34.32 C18.59,34.21 23.54,34.21 23.54,34.21 Z" id="Shape"></path>
            </g>
        </g>
    </g>
</svg>