<?xml version="1.0" encoding="utf-8"?>
<!-- Generator: Adobe Illustrator 26.3.1, SVG Export Plug-In . SVG Version: 6.00 Build 0)  -->
<svg version="1.1" id="Layer_1" xmlns="http://www.w3.org/2000/svg" xmlns:xlink="http://www.w3.org/1999/xlink" x="0px" y="0px"
	 width="650px" height="891px" viewBox="0 0 650 891" style="enable-background:new 0 0 650 891;" xml:space="preserve">
<style type="text/css">
	.st0{fill-rule:evenodd;clip-rule:evenodd;fill:#6CB33F;}
	.st1{fill-rule:evenodd;clip-rule:evenodd;fill:#46276A;}
	.st2{fill-rule:evenodd;clip-rule:evenodd;fill:#007C75;}
	.st3{fill-rule:evenodd;clip-rule:evenodd;fill:#6BB33E;}
	.st4{fill-rule:evenodd;clip-rule:evenodd;fill:#006F51;}
	.st5{fill-rule:evenodd;clip-rule:evenodd;fill:#004B4C;}
	.st6{fill-rule:evenodd;clip-rule:evenodd;fill:#A9C37D;}
	.st7{fill-rule:evenodd;clip-rule:evenodd;fill:#DFDFDF;}
	.st8{fill-rule:evenodd;clip-rule:evenodd;fill:#A9C47F;}
</style>
<g id="FHRS_00000112625187495691849930000014274608152461016756_">
	
		<g id="fhrs-yorkshire-and-humberside" transform="translate(324.929294, 445.247117) rotate(-2.000000) translate(-324.929294, -445.247117) translate(15.391178, 10.799572)">
		<path id="Fill-1_00000155862733161984710600000007311021392275290520_" class="st0" d="M263,340.6c-2.2,0.9-3.9,2.4-4.3,4.9
			c-0.2,1.5,0.9,2.1,2.2,1.9c2.9-0.4,3.3-2.8,3.8-5C264.6,341.3,264.3,340.1,263,340.6"/>
		<path id="Fill-3_00000137846390546183849360000010758819538479197075_" class="st0" d="M305.1,406.9c2.1-1,3.3-3.2,2.6-5.6
			c-1.2-4.4-1.2-8.8-1.3-13.3c0-2.7-1.4-4.4-3.7-5.5c-2.3-1.1-4.2-0.6-6,1c-3.6,3.2-3.7,7.3-0.4,13.7c1.3,2.7,0.6,5.5,0.4,8.2
			C299,408.7,302.2,408.2,305.1,406.9"/>
		<path id="Fill-5_00000083772619427672280290000012455067253941468333_" class="st0" d="M386.9,226.6c2.5,1,4.1,2.4,5.6,0.1
			c0.9-1.4,0.3-3.3-0.7-3.7C388.8,222.1,390,226.5,386.9,226.6"/>
		<path id="Fill-7_00000156548400685676538120000004173259194660492952_" class="st0" d="M250.1,184.2c-1.4-0.8-2.5,0.6-2.8,1.7
			c-0.6,2.1,1.2,2,2.6,2.1C250.8,186.7,252.1,185.3,250.1,184.2"/>
		<path id="Fill-9_00000172399912433031306170000011570980936550189228_" class="st1" d="M250.6,187.5L250.6,187.5L250.6,187.5
			C250.6,187.6,250.6,187.6,250.6,187.5C250.6,187.6,250.6,187.6,250.6,187.5L250.6,187.5L250.6,187.5L250.6,187.5L250.6,187.5"/>
		<path id="Fill-11_00000013885172513341946070000007270838246355443344_" class="st0" d="M239.8,195.7c0.7,0.1,1.1-0.6,1-1.7
			c-0.1-0.7-0.4-1.4-0.9-1.3c-0.7,0.1-1.2,0.7-1,1.7C239,194.9,239.5,195.6,239.8,195.7"/>
		<path id="Fill-13_00000168807878178606512810000005816084718448258487_" class="st0" d="M263.9,192.4c0,0.3,0.5,0.7,0.8,1.2
			c0.5-0.4,1.1-0.6,1.2-0.9c0.1-0.3-0.2-0.9-0.6-1C264.5,191.3,263.9,191.7,263.9,192.4"/>
		<path id="Fill-15_00000145017348062616078860000002124654678175262904_" class="st0" d="M424.3,130c2,1.2,1.3,2.9,1.3,4.6
			c-0.1,1.8,0.9,3,2.5,3.4c1.8,0.5,3.1-0.3,4.1-2c1.7-2.6,1.1-5-0.3-7.4c-0.7-1.1-1.3-2.4-2.8-2.8c-0.4-0.2-0.8-0.4-1.1-0.7
			c-2.1-2-3.5-0.6-5,1C421.1,128.2,422.9,129.2,424.3,130"/>
		<path id="Fill-17_00000136391149075056578890000011855359902067482276_" class="st0" d="M442.2,133.7c-0.4,0-1.1,0.8-1.1,1.3
			c-0.1,2.9-0.9,6.1,2.2,8.7c1.4-2.7,2-5.3,1.3-8.1C444.3,134.5,443.4,133.7,442.2,133.7"/>
		<path id="Fill-19_00000049914839958694182580000012548292170363172765_" class="st0" d="M437,132.6c-0.8,0.3-1,1.1-0.9,2.1
			c0.1,0.6,0.4,1,1.1,0.9c0.7-0.4,1-1.1,0.8-2.1C437.9,132.8,437.6,132.3,437,132.6"/>
		<path id="Fill-21_00000129902722083242195830000002380109536304484753_" class="st0" d="M430,122c1.3-0.5,1.9,0.8,2.9,1.2
			c0.6,3.2,3.3,2.9,5.9,2.8c0.4-0.3,0.7-0.6,1.1-0.9l0,0c2.8-1.2,4.9-1.2,5.8,2.6c0.6,2.6,2.3,4.5,5.5,3.7c0.2-1.2,0.9-2,2.1-2.3
			c1.5-0.5,2.6-1.3,2.5-3c-0.1-2-2.6-1.5-2.9-1.9c-1.3-2.3-4.8-1-5.5-3.7l0,0l0,0c-1.2-3.1-3.3-1.5-5.5-1.4
			c-3.1,0.2,0.3-1.1-0.2-1.6c0.3-0.3,0.6-0.7,0.9-1l0,0l0,0c1.8-1.6,0.3-3.2,0.1-4.8c-1.7-1.5-3.4-3-5.1-4.5
			c-2.5-0.1-5.1-1.1-7.5,0.6l0,0c-0.6,0.4-1.1,0.8-1.7,1.2c0,0.3,0,0.6,0,1c-0.7,1.8-1.3,3.6-0.3,5.5c-0.2,0.7-0.5,1.4-0.8,2.1
			c-0.7,1.7-0.9,3.3,0.5,4.7C428.4,122.1,429.2,122,430,122"/>
		<path id="Fill-23_00000065055432859189283920000017210922684749399228_" class="st0" d="M465,115.9c2.6-4.2-1-5.3-4.1-7.5
			c0.4,2.9,0.8,5.1,1.1,7.2C462.8,116.7,463.9,116.5,465,115.9"/>
		<path id="Fill-25_00000003092096202686241290000005667147093996160900_" class="st0" d="M450.7,118.9c1.5,0.1,3-0.3,3-1.7
			c0-1.7-1.7-2-3.4-2.2c-1,0.4-2.8,0.3-2.5,2C447.9,118.3,449.3,118.8,450.7,118.9"/>
		<path id="Fill-27_00000127748226898049959040000015480812770806928311_" class="st0" d="M455.4,110c1,0.4,1.5-0.5,1.7-1.8
			c-0.2-1.5-0.9-2.7-2.3-3c-0.9-0.2-1.8,0.1-1.7,1.5C453.3,108.2,454.1,109.5,455.4,110"/>
		<g id="Group-31_00000067915401650764826060000002259889926650169499_" transform="translate(440.129717, 103.663031)">
			<g id="Clip-30_00000129921303770198246580000007993156867344940164_">
			</g>
			<path id="Fill-29_00000165212386592643820270000007899371718028498566_" class="st0" d="M5.2,5.5c2-1.8-0.7-2.6-1-3.9l0,0
				C2.9,1.3,1.8-1.5,0.3,1.1c-0.9,1.5-0.3,3.1,1.3,4C2.7,5.8,4,6.6,5.2,5.5z"/>
		</g>
		<path id="Fill-34_00000038410877690103182110000014161186038279829938_" class="st0" d="M253.4,198.9c4.1-3.6,6.8-8.5,11.6-11.3
			c0.2-0.1,0.3-0.5,0.5-0.8c0.5-0.5,1-0.9,1.4-1.4l0,0l0,0c2.7,2,5.8,1.6,7.6-0.4c1.9-2.1,2.1-5.7,6.4-5c0.9,0.1,0.6-1.8,0.7-2.8
			c-0.5-0.7-0.5-1.6-0.5-2.5c0.2,0.7,0.4,1.5,0.5,2.5c0.1-2.3,0.4-4.6-0.9-6.6c2.6,0.1,2.8-1.8,2.9-3.6c1.5-1.5,3.3-1.3,5.2-1.1
			c1.8,0.2,3.7,1,5.2-0.9l0,0c0.5-0.8,1.4-1.5,0.6-2.5c-0.6-0.7-1.4-0.2-2,0.3c-1.9,1.5-4,1.6-5.1-0.6c-1.3-2.8,1.8-2.7,3.1-3.3
			c3.8-1.8,5.4-4.5,5-8.6c-0.2-1.9-0.2-3.7-0.4-5.6c-0.4-4.4-1.3-4.9-5.3-2.8c-6.2,3.3-12.1,7.4-18.7,9.9c-5.9,2.2-6.4,3.6-3.4,9.3
			c0.5,2.5-0.9,1.9-2.2,1.2c-2.6,1.2-4.5,1.8-5.8-2c-1-2.9-3.8-4.7-5.6,0.1c-0.6,1.5-2.5,0.9-3.5,1.9c-2,2.3-2,4.8-0.8,7.4
			c3.5-0.3,1.6,4.6,5.6,4.3c-3.5,2.3-6.2,0.6-9.3,0.5c0.9,3.5,3.3,4.9,5.9,6.5c1.8,1.1,4.3,1.6,3.5,5c-0.9,3.9-3.4,0.9-4.9,1.6
			c0.1,2.3-0.4,4.3-3.3,4.5c-2.1,0.2-1.6,1.4-1.1,2.6c0.4,1.1,1.8,1.7,1.6,3.1C249.6,198,250.9,201.2,253.4,198.9"/>
		<path id="Fill-36_00000175282183546356381250000010508272718587136173_" class="st0" d="M259.5,323.2c-1.4,0.1-3.5-0.4-2.5,2.3
			c1.2,3.3,3.6,3.9,6.8,3.2c1.9-0.5,3.8-1.4,5.9-0.8c3.1,0.9,6.1,0.7,9-1.2c1-0.6,2.3-1.6,3.6,0.2c2.1,3,5.1,2.4,6.5-1
			c0.4-1.1-0.4-2.5,1.1-3.3c4-2,3.3-4.6,0.9-7.3c-1-1.8-2.8-2.6-4.5-3.6c-3.3-1.5-7.4-2.1-7.9-6.8c-0.5-1.5-1.8-2.4-2.5-3.7
			c-2.4-2-4.7-3.8-7.3-0.2c-0.4,0.6-1.3,1.1-1.9,1.1c-3.4-0.1-3.4,2.8-3.5,4.5c-0.2,2.7,2.7,1.7,4.2,2.2c0.8,1.8,1,4,3.2,5.1
			c0.2,0.1,0.5,0.1,0.7,0.2c0,0.1,0,0.2,0,0.3c-0.1,0.1-0.2,0.1-0.3,0.2c-0.7,0.3-1,1-1.6,1.4c-2.1,1.3-4.6,2.5-2.7,5.7
			c0.4,1,1,1.5,1.6,1.7C265.6,323.2,262.5,323,259.5,323.2"/>
		<path id="Fill-38_00000158015399277193909720000016157932158291171755_" class="st0" d="M226.4,209.5c3.4,0.8,4.3,3.2,5.1,6.1
			c0.9,3,4,1.9,6.1,2.7c1.8,0.7,2.6-0.6,2.6-2.3c-1.8-1.4-1.8-1.4,0-2.3c1.6-1.5,0.8-2.5-0.4-3.9c-1.1-1.3-0.6-2.4,1.4-1.7
			c0.4,0.9,1.1,1.7,2.1,1.3c1.1-0.4,1.1-1.4,0.6-2.3l0,0c-2.3-1-3-5.6-5.6-4.4c-3.4,1.6-6.8,1.1-9.4,0.1c-3.4-1.2-3.5,1.1-4.3,2.4
			C223.5,207.1,225.1,209.2,226.4,209.5"/>
		<path id="Fill-40_00000097471849829167667350000011264118200928753541_" class="st0" d="M224.9,225.2c-1.7,2.1,0.1,4.7-1.2,6.9
			c-0.7,1.2-1.2,2.5-2,3.7c-2.5,3.9-1.6,10.9,2.1,14.4c-0.1,1-2.3,1.6-1,2.6c1.7,1.4,1.6-1,2.4-1.7c0.2-0.2,0.4-0.4,0.6-0.7l0,0
			c2.7-2.2-2.1-3.3-1-4.4c2.8-2.9,1.3-7.2,3.9-10c2.6-2.9,1.8-5.7-0.5-8.3C227.4,226.2,226.6,225,224.9,225.2"/>
		<path id="Fill-42_00000122699841983825022120000007546437097817300904_" class="st0" d="M264.4,263.1c-2.7,4.7-0.3,10.1,4.5,10.6
			c4.4-2.1,3.4-6.3,2.9-9.1C271.3,261.8,267.2,262.8,264.4,263.1"/>
		<path id="Fill-44_00000136383364267028556660000012417456626624250023_" class="st0" d="M218.2,254.7c-1.4-1.4-2.9-0.8-3.6,0.3
			c-1.3,2.4-2.2,5-3,7.1c0.2,1.5,0.3,2.6,0.5,3.7c0.1,0.7,0.6,1.1,1.3,1c0.4,0,1.1-0.5,1.1-0.7c-0.5-3.9,2.8-5.5,4.6-8
			C220.1,256.6,219.3,255.7,218.2,254.7"/>
		<path id="Fill-46_00000150072033976101411610000016827699149629811073_" class="st0" d="M256.2,297c0.9-1,2.8-1.4,1.6-3.1
			c-1.1-1.5-2.6-0.9-3.7,0c-2.8,2.3-5.6,4.7-8.4,7.1l0,0c-3.1-0.1-5.6,3-9,1.5c-1.5-0.7-3.4-2.3-4.1,0.2c-0.6,2.1-1.1,4.9,1.3,6.7
			c0.9,0.7,2,0.8,2.9-0.2c2.5-3,5.8-5,8.9-7.2C249.7,301.4,253.3,300,256.2,297"/>
		<path id="Fill-48_00000126286313689489518720000008600982462516766900_" class="st0" d="M289.7,228.5c-1.6-1-2.2,2.2-3.6,3.1
			c-0.2,2.2-0.7,4.4-0.5,6.6c0.3,3.1,1.7,2.4,3.1,0.6c0.2-1.7-0.4-3.5,0.3-5.3C289.7,231.9,291.6,229.7,289.7,228.5"/>
		<path id="Fill-50_00000165951565772485922320000010698010734951803294_" class="st0" d="M231.9,219.5c-1-2-3.2-1.1-4.7,0.5
			c-0.9,3.5,0.1,5.8,3.8,6.3C233.8,224.5,232.9,221.4,231.9,219.5"/>
		<path id="Fill-52_00000140000803726837749380000017014357372570933654_" class="st0" d="M274.5,278.9c1.9-0.2,2.5-1.7,2.5-3.5
			c0-1.2-0.1-2.7-2-2.4c-1.7,0.2-2.9,1.5-3,3.2C272,277.6,272.6,279.1,274.5,278.9"/>
		<path id="Fill-54_00000061463489280664835300000013079227477161016981_" class="st0" d="M258.9,257.4c-1.2,0-2.3,0.6-2.3,1.8
			c-0.1,1.6,1.4,1.9,2.6,2.1c1.1,0.2,2.1-0.3,2.4-1.7C261.1,258.4,260.3,257.4,258.9,257.4"/>
		<path id="Fill-56_00000072266024255887142430000011372199942541029291_" class="st0" d="M266.4,313.6c3-1.4,0.1-2.6-0.1-3.9
			c-1-0.1-2.4-0.4-2.6,0.8C263.5,312.5,265.6,312.5,266.4,313.6"/>
		<path id="Fill-58_00000089572394098879186560000015714619214078391193_" class="st0" d="M292.4,220.7c-0.1-0.2-1-0.3-1.2-0.1
			c-1.5,1.6-1.8,3.3-0.1,5.9C292.3,224.3,293.6,222.7,292.4,220.7"/>
		<path id="Fill-60_00000021810264381108632670000003671253827428842634_" class="st0" d="M208.2,270.6c-0.7,0.1-1.1,0.7-1,1.8
			c0.1,0.8,0.5,1.3,1,1.2c0.7,0,1.1-0.7,1-1.7C209.1,271,208.6,270.6,208.2,270.6"/>
		<path id="Fill-62_00000115479146220484431450000003005669140978138536_" class="st0" d="M287.2,242.9c0,1.9,1.7,1.5,3,1.3
			c0-0.9,0-1.8,0-2.6C288.8,241.3,287.2,241,287.2,242.9"/>
		<path id="Fill-64_00000106869275275110890020000013151182844051885459_" class="st0" d="M247.3,198.4L247.3,198.4
			C247.2,198.4,247.2,198.4,247.3,198.4C247.2,198.4,247.2,198.4,247.3,198.4C247.2,198.5,247.2,198.4,247.3,198.4z"/>
		<path id="Fill-66_00000082352727868650655740000003763194958202393239_" class="st0" d="M246.5,200.8c1.9-0.4,0.9-1.9,1.1-3
			c-1.1,0.4-2.8-0.4-2.9,1.4C244.6,200.2,245.4,201.1,246.5,200.8"/>
		<path id="Fill-68_00000096775613789544880910000005315385411024644228_" class="st0" d="M254.4,321.4c-0.8,0.3-1,1-1,1.7
			c0.1,1.2,1,1.2,2,1.1c0.3-0.6,0.7-1.1,1-1.7C256,321.7,255.5,321,254.4,321.4"/>
		<path id="Fill-70_00000168834337029507207240000016467212860219759771_" class="st0" d="M271.6,280c-1.4-0.5-2.6-0.2-2.8,1.3
			c0.4,2,1.6,1.6,3.1,0.8l0,0C273.5,281.3,272.8,280.5,271.6,280"/>
		<path id="Fill-72_00000097460845180289016820000012697095954064697526_" class="st0" d="M239.8,198.6c0.2,0.4,0.6,0.9,1,1
			c0.7,0.2,1-0.4,0.9-0.9c-0.1-0.4-0.5-0.8-0.7-1.1C240.1,197.8,239.5,198,239.8,198.6"/>
		<path id="Fill-74_00000083797244010624094020000007111721748106893997_" class="st0" d="M216.5,212.8c0.3-0.1,0.8-0.7,0.7-0.8
			c-0.2-0.4-0.6-0.8-0.9-1.1c-0.8,0.2-1.2,0.6-1.1,1.2C215.4,212.6,215.9,213,216.5,212.8"/>
		<path id="Fill-76_00000154397801870220775420000008430351508023079094_" class="st0" d="M481.6,244.6c-0.9-1.4-1.6-3-2.3-4.6
			c-1.8-4.1-5.1-6-9.4-5.3c-4.9,0.8-10-2.1-14.7,1.1c-0.8,0.5-2.4-0.1-3.6-0.4c-3.9-0.7-7.3-2.5-10.7-4.5c-2.7-1.6-5.2-2-8.4-1.1
			c-3.4,1-7.7,3.2-9.9-2.6c-0.7-1.8-3.1-2.4-5.2-2.8c-4-0.7-7.7,0.3-11.2,2.3c-2.3,1.3-4,4.9-7.5,1.7c-0.8-0.8-2.3,0.5-3.2,1.3
			c-1.1,1-2.2,2.1-3.3,3.2c-1.8-1.2-3.8-1-5.8-1c-1.9,0-3.8,0.1-4.7-2l0,0l0,0c2.2-2.1,2.1-3.9-0.6-5.4c-1.1-0.2-2-0.5-2-1.9
			c0.3-0.3,0.6-0.7,0.9-1l0,0l0.4-0.1h0.4c1.4,0,2.5,0.4,3.4,1.7c0.8,1.2,2.1,1.9,3.2,0l0,0l0,0c0.1-5.5,6.8-6.6,8.3-11.8
			c-5,2.9-9.4,1.3-13.9,0l0,0l0,0c0-0.7,0-1.4,0.1-2.1c4.3,0.1,6.7-1.8,6.9-6.3c0.1-1.4,0.7-3.3,2-3.5c3.9-0.7,5.4-4.5,8-6
			c7.7-4.4,14.3-10.4,21.8-14.6c5.4-3,9.2-6.4,12.3-11.2c1.4-2.1,2.6-3.6-0.8-5.3c-2.5-1.2-0.6-3.5,0.5-5.2s3.2-2.6,3.7-4.7
			c0.5-2,1.3-3.8-2.5-3.5c-3.6,0.2-7.2-1.2-10.9-1.8c-2.9-0.4-2.3,0.1-2,1.9c0.4,2.7-0.6,3.6-0.9,2.9c-1.1-2.2-3.7-0.8-4.8-2.3
			c-2.9-4.1-6.5-2.5-8.8-0.2c-4.1,4-8.3,2.4-12.3,1.1c-3.8-1.2-7-1-10.2,1c-1.2,0.8-2.2,1.2-3.3,0.2c-1.2-1.1-2.3-0.6-3.4,0.1l0,0
			l0,0c-0.6-0.3-1.2-0.6-1.8-0.9c-1.2-4.5-3.8-5.1-8.4-1.9c-1.2,0.6-1.9,0.4-2-1c0,0.4-0.2,0.8-0.4,1.1c0-0.4,0.1-0.8,0.4-1.1
			c-1.2-4-3.2-5.9-7-2.4c-1.8-4.5-3.7-6.2-6.5-6c-3.3,0.2-3.6,2.9-4.2,5.3c-0.3,1.3-0.7,2.4-2.4,2.2c-1.7-0.2-3.1-0.1-3.4,2.1
			c-0.5,3,2.4,3,4.3,4.2c-3.4-0.2-1,4.9-5.3,4.1c-1.4-0.3-1.6,2-1.5,3.4c0.1,2,0.8,3.9,1.8,5.7c1.4,2.6-1.5,2.8-2.4,4.1
			c-1.7-3-5-1.5-7.3-2.7c-1.4-0.7-2.1-0.9-3.2,0.2c-1.4,1.4-0.1,2.2,0.7,3.1c1.8,2,3.5,4,3.9,6.8c0.5,3.3-0.8,5-4.3,5.1
			c-1.6,0-3.7-2-4.6,0c-0.7,1.8,1,3.8,2.3,5.3c1.2,1.4,2.5,2.8,3.9,3.9c2.9,2.2,4.6,4.9,5.3,8.4c-0.6,0-1.2,0-1.8-0.1l0,0
			c-2-2.8-6.9-2.3-7.5-6.7c-0.1-0.6-1.3-0.8-2.1-0.5c-0.8,0.4-1.1,1.2-0.7,2c1.2,2.2-0.5,1.9-1.8,2.5c-2.6,1.2-5,1.3-7.4-0.7
			c-0.2,2-0.4,3.6-0.6,5.3c-0.9,0.8-2,2-2.5-0.2c-0.3-1.2-0.2-2.4-0.9-3.4c-2-2-4.2-2.3-6.2-0.4c-1.8,1.8-2.9,4.1-1.5,6.8
			c0.5,1,0.8,2,1.2,3c0.3,0.9,0.9,1.3,1.7,1.5c-0.3,1.5-2.2,2-2.6,3.4c-1,1.4-1,2.9-0.9,4.5c1.6,3.6,4.8,5.9,7.7,9.2
			c-2.3-0.4-3.5-1.4-4.8-2.2c-0.6-0.4-1.3-0.7-1.9-0.7c0.2-1-0.4-1.7-1.3-2.2c-4.9-1-4,3.1-4,5.3c0,3.2,1.1,6.4,1.5,9.6
			c0.4,3.7,1.8,4.4,4.6,1.9l0,0c1.1-0.6,2.1-1.2,3.4-0.8l0,0c-0.8,3.5,1.7,3.8,4.6,4c-1.7,1.8-3.3,1.7-5,1.8c-1.3,0-2.6-1.9-4,0.1
			c-1.3,1.8,0.9,2.7,1,4.1c1.6,1.3,3.4,1.4,5.3,1.1c0.5,0,1.6-0.2,1.3,0.4c-0.5,0.9-1.5-0.1-2.3,0c-0.8,0.2-1.8-0.1-2.4,0.7
			c0,0.3-0.1,0.5-0.2,0.8c-1.1,1.8-3.1,3.2-3.3,5.3c-0.1-0.2-0.3-0.4-0.5-0.5l0.1-0.1c1.3-1.9,1.4-3.8,0.1-5.7
			c-2.5-1-4.7-2.9-7.8-1.4c-1.7,0.8-2.7-1-3.5-2.3c-0.4-0.9-1-1.6-1.9-1.8c-4.1-0.7-5.1-3.3-4.7-7c0.1-0.9-0.1-1.8-0.7-2.6
			c-0.9-1.8,0.1-3.2,0.6-4.9c1.4-5.3,2.3-10.7,0-15.9c-0.8-1.9-2.9-3.1-2.3-5.8c0.3-1.3-1.8-2.8-2.3-2c-1.6,2.3-5.1,4.3-4.7,7
			c0.5,3.1-1.7,6.7,1.4,9.4c0.3,0.2-0.1,1.5-1.1,1.7c-3.9-3.3-9.1-5.3-10.2-11.6c-1.8,1.9-2.4,3.4-1.9,5s0.8,2.8-0.8,4.1
			c-2.2,1.7-2.3-1.7-4.1-1.1c-0.5,1.5,0.3,3.9-2.7,4.3c-1,0.1-1.3,1.9-0.3,2.7c1.3,1.2,1.9,2.8,2.4,4.4c0.6,1.9,2.1,3,4.1,3.5
			c2.5,0.6,2.3-2.1,3.7-3.1c1.5,1.5,2.9,3.3,4.9,4.2c0.7,0.3,1.5,0.8,1.1,1.8s-1.2,1.4-2.3,1c-0.8-0.3-1.3-1.4-2.7-0.7
			c-0.2,3.3-0.4,6.5,4.1,7.4c0.4,0.1,1,0.5,0.9,0.7c-1.6,6.1,3.6,4.9,6.1,4.8c3.6-0.1,4.5,1.7,5.3,5.4c2.1-6.6,5.5-3.4,8.5-2.7
			c-1.4,1.5-3.6,1.3-4.6,3.1c-0.8,1.7-0.1,3.7-1.4,5.3c-0.8,1-3.2,2.3-0.9,3.7c1.8,1.1,3.8,0.9,5.1-1.5c0.8-1.5,1.7-3.1,3.8-3
			c0.9,0.2,1.8,0.3,2.3,1.2l0,0l0,0c-0.1,1.3,0.3,2.4,0.9,3.4l0,0l0,0c-0.1,1.4-0.9,2.1-2.3,2.1c-1.3,0-2.4,0.4-2.4,1.9
			c0.5-0.3,1-0.6,1.4-0.8c-0.5,0.2-0.9,0.5-1.4,0.8c0.2,1.9,0,3.6-2,4.6l0,0c-1.3,0.8-3,1.8-2.5,3.5c0.6,2.1,2.4,0.2,3.6,0.5
			c1,0.3,2.1,0.6,3.1,1c0.9,0.4,1.7,1,1.6,2.1c-0.1,1.3-1.2,1.3-2.1,1.3c-4.3,0.2-3.7,2-1.3,4.2c-3.9,1.5-7,2-10.7-0.7
			c-2.6-1.9-6.7-1-9.4,1.8c-0.7,0.7-1.8,1.6-1.2,2.8c0.6,1.1,1.4,2.2,2.9,1.8c2.4-0.6,3.9,0.3,4.9,2.5c1.9,2.9,5.2,0,7.4,1.6
			c1.4,0.3,2.4-0.7,3.7-0.9c0.4-0.2,0.7-0.3,1.1-0.6c1.4-0.9,2.8-1.3,4.2-0.1c0.2,0.2,0.6,0.3,0.7,0.6c0.4,1.2-0.6,0.4-0.7,0.4
			c-1.2-0.2-2.4-0.4-3.6-0.3c-1.5,0.1-3,0.4-4.3,1.2c-1.9,1.7-4.6-1.4-6.4,0.9l0,0c-1.3,1.4-1.3,3.2-1.2,4.9c0.9,3,2.8,5.2,5.9,6
			c1.4,0.4,2.6,0.8,3.5,2c3.4,2.4,6.9,2.4,10.3,0.1v0.1c1.5-0.5,2.4-1.5,3.1-2.8c0.6,1.2,1.6,0.9,2.7,0.4c-0.2,1.6-0.2,3.1,1.6,3.8
			c1.8,0.6-0.6,0.9-0.2,1.4c-1.2,0-2.6-0.6-3.3,1c0.2,0.1,0.5,0.1,0.7,0.1l0,0c-0.1,1.6,2.4,1.3,2.3,3c-7.9,2.2-8.2,3.6-11.5,13.6
			l0,0c-1.8-1.7-2.7-1.3-3.7,1.8c-0.5,0.1-1,0.3-1.5,0.4l0,0c-1.3,1.3-2.7,2.5-4,3.8c-0.3,0.8-0.6,1.6-0.9,2.5l0,0
			c0,1.1,0,2.1,0,3.2c-2.4,3.6-7.1,3.8-10.1,6.5c-2.3,2.1-3.6,3.9,0.2,6c-2.5,1.3-4.6,2.4-6.7,3.4l0,0c-3.3-0.6-2.6,2.9-4.7,4.8
			c0.3-1.9,0.4-3,0.6-4.2c-0.2-1,1.3-2-0.2-2.9c-1.6-0.9-3.3-0.4-4.4,0.5c-1.9,1.7-3.5,3.8-5.2,5.7c-1.3-1.2,0.4-3.3-1.6-4.2
			c-2.6,1.7-4.3,4.6-7.3,5.7c-0.8,0.6-0.5,1.5-0.6,2.4c0.1,0.8,0.5,1.6,0.5,2.4c0,0.2,0,0.4,0,0.6s-0.1,0.4-0.2,0.6
			c-0.2,0.5-0.3,1.1-0.9,1.5l3.8,2.1c0.9-1.3,1.8-2.6,2.6-4c2.7-0.6,1.8,0.9,1.2,2.1c-0.7,0.8-0.8,1.7,0,2.5l0,0l0,0
			c-0.3,1.3,0.9,2.6-0.1,3.9l0,0c-1.9,1.9-2,4-0.8,6.3l0,0c1.5,2.2,3.6,1.7,5.2,0.5c2.4-1.8,4.2-1.1,6.2,0.5
			c4.5,3.4,9.1,6.9,13.7,10.2c1.7,1.2,1.3,2.6,0.9,4.1l0,0l-0.1,0.1c-0.8,1-3.3,0.5-2.7,2.9c0.4,0.6,0.7,1.1,0.4,1.8
			c0.1-0.8,0.2-1.5-0.8-1.8c-0.1,0-0.3,0-0.5,0c-1.6,2.8-2.6,6.4,0,8.3c2.4,1.8,6.3,1.6,9.4,0.1c2.7-1.3,4-3.9,3.6-7
			c-0.2-2,0.3-3.6,1.2-5.4c4.6-9.1,8.3-18.7,13.8-27.5c-3.1-7.5-4.6-13.3,1.7-17.3c0.3-0.4,0.6-0.8,0.9-1.2c0.2,0.1,0.3,0.4,0.4,0.6
			c-0.3,0.3-0.6,0.7-0.9,1c-0.5,2.1-1.8,3.9-2.8,5.8c-2.8,5.1-0.1,11.1,5.2,12c0.1-0.1,0.3-0.2,0.4-0.3c0.6,0.6,1.2,1.2,1.8,1.7l0,0
			c0.4,1.5,0.6,3.1,1.2,4.4c0.8,1.6,2.1,2.9,4,2.4c2.1-0.6,1.3-2.6,1.1-4c-0.2-1.6-1-3.2-1.5-4.7l0,0l0,0c0.5-0.6,1.1-1.1,1.6-1.7
			c0.1,0.1,0.3,0.3,0.4,0.3c1.4,0.6,2.8,0.6,4.2,0.1c0.3-0.2,0.5-0.3,0.8-0.5c0.7,0.3,1,0.8,1.2,1.5c0,0.2,0,0.4,0.1,0.6
			c0,0.3,0,0.5,0,0.8c0,1.8,0,3.5,0,5.3c-0.2,0.5-0.4,1-0.7,1.4c-2.4,4.8-2.1,8.4,2.4,12.4c2.7,2.4,3.7,5.1,4.8,8.2
			c1,2.9,0.3,5.2-2.5,6.1c-4.6,1.5-5.3,6.2-8,9.2c-0.3,0.4-0.2,0.9,0.1,1.4l0,0c-0.2,0-0.4,0.1-0.6,0.1c0.1,1.4,0.1,2.6-1.2,3.7
			c-4.8,4.2-8.1,9.5-11,15c-0.1-0.3-0.1-0.7-0.2-1c-1.1,2.7-2,5.6-4.9,6.5c0.2,0,0.4,0,0.6,0.1c-0.6,0-1.3,0-2.1,0.1
			c-2.7,2.6,0.8,5.8-0.3,7.7c-3.3,5.6,1.3,8.1,3.5,11.7c1.6,2.6,4.3,4.8,3.1,8.4c-0.8,2.4-0.5,4.3,1.5,5.8c0.8,0.6,1.6,1.1,2.4,0.1
			c1.5-2,0.8-4.1-0.1-6.2c-1.1-2.6-2-5.2-1.9-8.1c0.1-2.6,1.5-4,3.8-4.8c2.5-0.8,3.3,1.1,4.1,2.8c0.7,1.5,1.6,2.8,3.2,3.3
			c3.7,1.1,5.5,3.6,6.5,7.3c0.4,1.4,1.5,2.8,2.6,3.8c3.7,3.4,6.5,2.5,7.7-2.3c0.8-3.4,1.5-6.7-1.7-9.5c-1.3-1.2-1.4-3.1-1.5-4.8
			c-0.1-1.4-0.2-3.4,1.4-3.5c2.2-0.2,2,1.8,1.9,3.4c-0.1,4.4,2.1,5.1,6.2,5.3c2.3,0.1,0.7,6.4,5,6.9c0.5,0.1,1.1-0.5,1.7-0.7
			c1.5-0.4,1.8,0.8,2.4,1.7c0.1,0.2,0.3,0.4,0.4,0.6c4.4,1.6,7.1,0.6,10.4-4.1c1.5-2.3,2.9-3.8,6-2.7c6.9,2.4,6.9,2.3,7.9-5.4
			c0.1-1-0.1-2.5,1.6-1.9c3.1,1,6.1-0.8,9.2-0.1c1.6,0.1,2.9,1,4.3,1.6c3.1,1.3,6.5,4.7,9,2.1c1.5-2.7,3.1-7.9,6.6-7.7
			c2.3,0.1,4.1-1.2,5.6-2.9c2.4-2.7,5.4-4.6,8.7-6c2.3-1.2,3.1-3.4,3.7-5.7c1.5-5.8,3.3-7,9.4-6.3c2.1,0.2,4.4,0.6,5.1-2
			c0.9-3.3,3.1-4.7,6-5.9c3.5-1.4,4.2-3.6,2.8-7.2c-0.9-2.3-2.4-4.4-3.8-6.5c-1-1.6-1-2.9,0.9-3.8c3.6-1.7,6.3-4.6,9.5-6.9
			c3.1-2.1,4.5-4.7,2.6-8.3c-0.5-10-12.3-7.3-15.7-14.1c-0.5-1-2.1-1.3-3.4-1.3c-0.6,0-1.2,0.1-1.8,0.3c-2.4,0.5-3.7-0.2-3.2-2.9
			c0.7-3.7-1.4-4.4-4.3-4.3c-4.9,0.2-8.9,2.6-12.5,5.7c-2.9,2.5-5.4,3.9-8.4-1.7c-3.3,0.9-6.3,0.7-8.1-2c-1.7-1.3-3.7-1.3-5.7-1.5
			c-3.6-0.5-4.6-1-6.6-3.3c3.6-0.1,6.9,3.7,11.3,1.7l0,0c1.6-0.7,3.3-0.8,4.8-1.7c5.1-0.5,9.1-2.5,11.6-7.3c1.1-2.1,3.1-4.2,5.7-2.8
			c4.4,2.5,8.2,0.5,12-1c1.8-0.7,4.8-1.1,4.1-4.1c-0.6-2.6-2.6-4.3-5.2-4.7c-1.7-0.2-3.5-0.1-4.9-1.1c-2.2-1.5-4.8-3-0.3-4.9
			c1.8-0.8,1.7-2,0.5-3.3c-5.2-4.1-10.3-0.1-15.9,0.5c2.8-2.3,5.6-3,8.7-2.6c3.2,0.4,6.4,0.4,9.3-2.1c4.2-0.7,8.5-1.4,12.2-3.7
			c0.6-0.4,1.1-0.7,1.7-1.2c1.7-1.7,2.5-3.7,1.9-6.1c-0.8-3,1.7-3.7,3.5-4.8c2.8-2,2.7-5.4,4.1-8.1l0,0c4.3-2.9,8.6-5.6,8.6-11.7
			c0-1.4,1-2.7,2.2-3.5c5.7-3.9,7.1-9.9,7.9-16.2c0.3-2.8,0.7-5.6,1.2-8.3c0.6-2.8,2-4.9,5.3-4.8c3.1-0.9,4.7-3.4,6.5-5.7
			C484.8,254.5,484.8,249.7,481.6,244.6"/>
		<path id="Path-4_00000005962108934890479570000015047385605958771630_" class="st0" d="M477.6,66c3.5,0,9.5-9.4,9.5-16.3
			s-0.5-12.5,2.3-15.8c2.8-3.3-2.6-17,2.5-20.9c5.2-3.9,10.3-9.1,6.2-12.2s-10.7,3.1-12.9,7.6s-17.8,6.7-16,12.5
			c1.8,5.9,3.6,12.9,1.8,12.9c-1.8,0-7.4,3.6-4.6,7c2.8,3.4,11.2,0.8,11.2,5.8s1.1,15-1.8,15C472.8,61.8,474,66,477.6,66z"/>
		<g id="Group-80_00000007390071645395312630000013764227728861395596_" transform="translate(203.264593, 707.895091)">
			<g id="Clip-79_00000052818787309201555400000003988176248804815247_">
			</g>
			<path id="Fill-78_00000089566658219311101640000004387098209408766090_" class="st2" d="M238.2,61c0.4-4.5-1.3-7.8-2.3-11.6
				c-0.3-0.6-0.5-1.2-1-1.6c-5.1-0.9-3.4-3.7-2.2-6.4c1.8-3.1,2.1-6.5,2-9.9c-0.3-3.7,0.3-7,3.3-9.6c1.8-1.6,2.4-3.9,1.6-6.3
				c-1.8-3.7-1.9-7.9-3.5-11.6c-2-4.7-5.2-5.1-8.4-1.3c-0.9,1.1-1.5,2.6-3.2,2.4c-4.4-0.6-8.2,1.5-12.1,3c-3.3,1.2-5.9,1.9-8.6-1.6
				c-1.7-2.1-4.9-3.2-7.6-2c-2.7,1.2-2.7,4.1-1.9,6.6c0.8,2.9-0.6,3.9-3.1,4.6c-2.2,0.6-4.6,1.3-5.6,3.8c-1,3.9-2.8,7.6-3.5,11.5
				c-0.4,2.1-1,4.1,0.7,6c1.3-0.7,2.5-1.1,3.7-1.8c1.4-0.4,2.6-0.9,3.6-1.6c-0.6,0.7-1.1,1.7-1.6,2.6c-7.4,7.3-17.3,11-25.5,17.1
				c-4.6,3.5-7.6,7.3-6.3,13.4c0.3,1.4,0.5,2.8-0.8,3.8c-2.5,2-16.6,2.2-19-0.1c-3.5-3.4-7.8-4.9-12.4-6.1c-2.8-0.7-5.8-1.2-8.3-2.9
				c-1.6-0.9-3.1-0.9-4.7,0c-4.9,0.6-9.9,1.5-14.8,1.7c-3.7,0.1-4.8,1.4-3.6,4.8c1.2,3.4-0.3,5.8-2.9,7.6c-2.9,2.1-6.2,2.9-9.7,1.6
				c-2.9-1-5-1-4.6,3c0.2,2.1-0.6,3.7-2.4,4.7c-1.5,0.9-1.9,2-1.5,3.5c1.4,6.3-2,9.6-7.2,11.8c-1.1,0.5-2.4,0.7-3,1.9
				c-1.4,1.6-4,3.2-4.1,4.9c-0.4,5.4-3.7,4.7-7.1,4.5c-2.5-0.1-5.3-0.6-6.1,2.8c-1.3,5-4.8,8.3-8.6,11.3c-4.7,3.8-9.6,7.4-14.4,11.2
				c-1.1,0.9-2.4,1.3-3.5,0.8c-6.8-3.1-11.1,1.9-15.8,5.1c-3.6,2.4-2,6.1-0.5,8.9c1.4,2.6,3.5,0,5.3-0.4c1.8-0.3,3.1-1.3,3.3-3.4
				c0.1-1,0.7-2,1.8-1.6c3.5,1.3,7,2.6,10.2,4.4c2.2,1.2,0.9,3.7,1,5.6c0.2,2.9,2.4,6,4.2,4.4c2.2-1.9,4.6-1.9,6.7-3.2
				c1.6-1,2.2-3.1,1.3-4c-2.6-2.7-0.8-4.1,0.8-6c0.8-1,0.8-2.6,1-4c0.2-1.4,0.4-2.8,1.5-3.8c0.8-0.7,1.6-1,2.5-0.3
				c1.1,0.9,0.4,1.6-0.3,2.2c-0.5,0.4-0.9,0.9-1.3,1.4c-1,1.4-1.6,2.8,0.1,4.1c2.2,1.7,2.2-0.6,3.2-1.7c1.9-2.2,5.1-4.3,7.3-3.6
				c4.9,1.4,4.8-1.2,5.2-4.4c0.3-2.9,5.3-5.2,7.7-3.4c2.1,1.6,4.2,1.3,6.1,0.4c4.9-2.3,9.3-1,13.8,1.2c0.8,0.4,1.8,2,2.7,0.6
				c0.9-1.3-0.2-2.3-1.2-3.1c-0.8-0.5-2.5-0.6-1.4-2.2c0.6-0.9,1.5-1.6,2.7-1.5c1.9,0.1,1.9,1.8,2.3,3.1c1.2,4,2.9,7.6,7.3,9
				c1.2-0.1,2.1-0.6,2.3-1.7c2.3-0.7,2.4,2.5,4.2,2.7c3.4-0.2,3.9-5.8,8.8-4.3c-2.7,1.9-5.1,3.7-3.9,7.2c0.1,0.1,0.1,0.2,0.2,0.4
				c-1.4,0.6-2.7,0.6-4.1-0.3c-0.1,1.4-0.2,3,1.4,3.4c1.8,0.5,2.5-1.2,3.2-2.4l0,0c2.8,0.1,1.4,2.4,1.9,3.7c0.2,1.4-0.6,3.3,1.8,3.7
				c2.6,0.5,4.8-0.4,5.9-2.7c1.1-2.2,2.2-4.9-1-6.7l0,0c0.4-1.5,2.1-1.7,2.9-2.8c1-1,2.9-0.5,3.5-2.1l0,0l0,0c0.2-1,0.9-1.6,1.9-1.9
				c0-0.8,0-1.7,0.1-2.5c1.3-1.1,0.8-2.6,0.8-3.9l0,0c0.4-0.6,0.7-1.2,1.1-1.8c-0.1-4.3,1.7-7.8,5.6-8.9c3.8-1.1,7.2-3,10.8-4.3
				c7.3-2.8,14.6-3.9,21.9,0.1c5.5,2,10.3,5,13.2,10.3c0.6,1.6,1.3,3.1,1.8,4.7c0.4,1.2,0.1,3.4,2.2,2.6c1.6-0.7,2.1-2.6,1.1-4.4
				c-0.7-1.2-2.7-1.9-1.4-3.8l0,0l0,0c6.9-2.1,12.9,2.1,19.3,3.2c3.2,0.5,6.4,1.1,6.7-2.1c0.4-4.5,3.2-4.7,6.2-5.3
				c2.7-0.5,5.5-1,8-2.2c-0.4-3.3-1.3-6.6-0.1-10c0.6-1.7-0.6-3.2-1.5-4.7c-0.8-1.1-0.9-2.6-1.7-3.7c-0.8-1.2-2.8-2.3-1.5-3.9
				c1.1-1.5,2.9-0.5,4.4-0.2c1.4,0.3,2.7,0.9,4,1.4c4.3,1.6,6.1,0.4,6.3-4.3c0.1-3-1-5.8-1.5-8.7c-0.8-4.8,0.2-7,4.6-8.9
				c2.2-0.9,2.8-2.4,3.7-4.3C240.1,67.8,237.9,64.3,238.2,61"/>
		</g>
		<path id="Fill-81_00000043439106968092463370000003168946598462845082_" class="st3" d="M396,630.4c-1.4-4.2-3.8-7.9-6.2-11.5
			c-1.3-1.9-3-3.6-1.4-6.3c0.9-1.5-0.4-2.7-1.5-3.6c-2.4-1.8-4.8-3.5-7.9-3.5c-4.2,0.1-5.8-3-7.4-6.1c-1.8-3.4-4.1-4.4-8-3.4
			c-7,1.8-14.4,3.8-20.1-3.5c-0.7-0.9-1.9-1.1-3-0.5c-0.7,0.4-1,1.2-0.7,2c1.4,4-1.5,4.6-4.2,5.4c-4.5,1.2-9,2.5-13.4,3.8
			c-2.1,0.9-4.7,1.2-5.7,3.7c-2.1,2.4-4.4,4.7-4.5,8.3c-0.1,1.9-1.8,2.9-3.3,3.6c-3.2,1.6-6.3,3.3-9.8,4c-1.8,1.3-4.6,1-5.9,3.4
			c-1.7,2.2-6.3,3.6-4.6,6.6c1.9,3.4,5.1-0.2,7.8-1c0.9,1.7,1.5,3.8,3.9,4c1.2,0.1,2.3-0.8,2.5-1.8c1.5-7.4,7.3-7.6,13-7.6
			c2.5,0,6-1.3,7.3,1.4c1.5,2.9-2.6,4-3.7,6.2c-0.4,0.4-1,0.6-1.4,1.1c-0.2,0.6-0.2,1.2-0.1,1.7c0.4,1.2,1.2,2,2.1,2.8
			c0.4,0.6,0.9,1.2,1.3,1.8c0.3,0.5,0.4,1.1,0.8,1.5c0.9,0.7,2,0.9,2.8,1.8c-0.2,2.8-1.5,4.8-4.1,6c-1.2,0.6-2.7,1.2-1.5,3
			c1.6,1.8,3.2,3.6,4.9,5.5c-4.7,2-5.1,2.5-5.9,7.2c-0.9,5.3-2.7,10.2-6.4,14.3c-1.9,2.1-4.1,4.2-7.1,3.8c-3.3-0.5-5.4,0.9-7.3,3.1
			c-2,2.2-4.2,3.7-7.3,3.1c-5.3-1.1-9.8,0.6-13.7,4.1c-2,1.8-4.1,2.8-6.8,2c-3.2-1.4-6.4-3-8.8,1.1c-0.7,1.4-1.8,2.5-3.4,3
			c-2.8,0.3-5.6,0.9-7.9,2.7c-1.8,1.3-3.5,3-1.3,5.4c2.3,0.1,4.6,0,7,0.2c3.3,0.2,3.9,2,2.4,4.8c-1.2,2.3-3.5,2.8-5.6,3.8
			c-2.3,1-2,2.9-0.9,4.7c1,1.7,2.5,2.6,4.1,0.7c2.5-3.1,3.8-1,5.1,1c3.9,1,6-3.2,9.7-3.4c0.1,2.6-1.5,3-3.2,3c-2.4,0-4.6,0.4-6.5,2
			c-2.2,1.7-2.1,3.7-0.6,5.7c1.6,2.1,3.6,2.8,6.1,1.3c1.5-0.9,3.2-1.4,5-0.8c4.5,1.6,7.1-0.6,9.1-4.2c1.6-2.8,3.6-4.2,6.9-2.9
			c2.2,0.9,4.2,0.8,5.6-1.7c0.9-1.6,2.6-1.9,4.1-1.2c2,1,1.3,2.5,0.4,3.9l0,0l0,0c-2.8,1.6-1.8,3.1,0.1,4.6l0,0l0,0
			c2.7,1.7,5.8,0.5,8.7,1.2c1.5,0.4,3.4,0.7,2.7,2.9c-0.5,1.7-2,1.7-3.4,1c-0.6-0.3-1.2-0.5-1.8-0.6c-3.6-0.3-4.6,2.7-4.9,5.1
			c-0.4,3.4,2.5,1.7,4,1.7c3,0,5.9,0,8.8,1c2.3,0.8,4,0.6,4.5-2.2c0.5-2.6,2.2-2.5,4.2-2.1c3.3,0.7,4.5,3.3,4.9,6.1
			c1.5,10.7,13.2,19.4,25,18.8c2.1-0.1,4.6-0.2,5.4-2.1c2.3-5.9,8.5-7.3,12.6-7.9c7.6-1.1,13.1-5.2,19.1-8.8
			c-0.2-3.6,0.7-7,1.8-10.4c0.7-2.5,2.6-4.7,1.9-7.5c-3.5-1.9-6.5-4.2-8.3-7.9c-1-2.2-2.8-3.3-5.4-2.1c-1.8,0.8-3.2,0.5-4.4-1.2
			c-3.7-5.3-2.7-17.3,2.2-21.6c2.9-2.6,2.9-6.4,4.8-9.4c0.7-1.1-0.7-2.2-1.8-2.9c-1.2-0.8-2.6-1.1-3.8-1.8c-2.4-1.5-5.2-3.2-4.9-6.3
			c0.4-3.3,3.8-2.5,6.1-2.9c4.3-0.7,5.9-3.4,3.9-7.3c-1-1.9-0.6-3.1,0.3-4.7c3.8-6.9,3.2-10.4-2.6-15.3c-1.4-1.1-2-2.2-1.2-4
			c2.7-5.5,8.5-7.1,13.4-3.4c2.7,2.1,4.6,1.2,6.2-1.3C395.8,633.6,396.2,632.1,396,630.4"/>
		<path id="Fill-83_00000181060297560187560890000016787558517665542016_" class="st3" d="M303.4,594.5c2.4-0.2,3.2,1.2,3.7,2.7
			c0.9,2.6,0.5,6.1,4.5,6.3c0.4,5,2.8,2.4,4.7,1.3c2.3,0.3,3-1.3,3.7-3c2.5-3.3,8.1-3.4,9-8.4c-0.7-0.8-1.3-0.5-1.9-0.3
			c-2.8,1.2-4.6,1.5-5.1-2.7c-0.3-2.4-2.1-4.8-3.1-7.1c-1.7-3.7-12.2-1-13.6,3.2c-0.4,1.4-0.8,2.3-2.3,2.4c-1.2,0-3.3-0.9-3,1.3
			C300.2,592,300.9,594.7,303.4,594.5"/>
		<path id="Fill-85_00000022540281723084147310000002946131767447157666_" class="st4" d="M271.8,478.9c-1.2-5.8-3.9-7.4-9.7-6.3
			c-3.7,0.7-6.7,3.1-11,4.1c1.1-6.2,5-9.2,9.4-12c2.1-1.3,3.6-2.4,0.3-4.1c-1.9-1-2.9-2.8-2.7-5.1c0.3-3.3-1.1-5.7-3.5-7.7
			c-1.7-1.4-2.7-2.9-1.1-5.2c1.3-1.9,0.2-3-1.8-3c-3.3,0-2.5-1.9-2-3.8c0.4-1.3,0.8-2.7,0.8-4.1c0-5.6-2.9-7.9-8.3-6.6
			c-1.1,0.3-1.9,0-2.5-0.7c-4.6-5.3-9.9-4.1-15.4-2c-4,1.5-7.9,3.8-12.6,2.2c-2.2-0.8-3.3,1-3.9,3c-2.3,6.7-6.3,8.2-12.8,4.6
			c-5.1-2.3-10.7,0-12.9,5.1c-2.2,5.3-3.4,11.2-7.8,15.2c-3.5,3.2-7.3,6.4-12.7,4.4c-2.1-0.8-3.7-0.1-4.9,1.6
			c-1.5,2.2-1.2,4.4,0.3,6.5c1.2,1.7,3.2,2.2,5,3.2c-4.5,3.4-4.5,3.5-10,2.6c-1.8-0.3-3,0.2-4,1.7c-0.6,0.9-1.1,1.9-2,2.5
			c-1.6,1.1-4.2,1-4.6,3.5c-0.4,2.2,1.6,3.7,2,5.6c0.4,2,2,3.1,3.1,4.6c2.2,3.1,6.4,4.6,6.7,9.1c0,1,0.1,1.9,1,2.5
			c1.3,1,3,0.8,4.5,1c2.2,2.2,4.5,4.3,6.7,6.5c0.3,0.3,0.6,0.6,0.9,1c1.2,2,2.9,1.7,4.7,1c1.7-1.2,3.2-1.9,5.5-0.6
			c2.7,1.6,5.2,0.8,7.5-1.8c2.6-2.9,6.1-4.9,4-9.7c-0.4-0.9,0.9-2.1,1.9-3c1.3-1.1,2.5-2.4,3.7-3.5c1.4-1.3,2.1-4,4.7-3
			c2.3,0.9,3.9,2.8,3.9,5.4c0,4.1,2.8,7.5,2.8,11.7c0,2.3,2,3.6,4.3,3.4c3.8-0.4,3.6,2,3.2,4.5c-0.2,1.5-1,3-1.1,4.5
			c-0.1,1.4,0.4,3.5,2,3c5.5-1.6,11.8,2,16.8-2.5c0.3-0.2,0.9-0.1,1.4-0.1c1-1.8,2.3-1.9,3.8-0.7c2,1.5,4.2,2.7,6,4.5
			c3.1,2.9,5.2,1.9,7-1.2c1.8-3.1,2.8-6.6,3.2-10.2c0.6-5,1-5.3,5.2-2.9c2.6,1.4,5,1.8,7.4,0c2.3-1.8,2.8-4.3,2.5-7.1
			c-0.5-3.4-3.5-2.3-5.4-3.1c2.4-4.1,2.3-4.1,1.6-12.7c-0.1-1.3-0.9-3.2,0.9-3.6c1.9-0.5,3.1,0.9,3.8,2.7c1.2,3.1,0.4,6.2-0.4,9.2
			c-0.6,2.1-0.5,3.7,1.1,5s3.2,0.8,4.7-0.3C273.5,491.3,273.1,485.1,271.8,478.9"/>
		<path id="Fill-87_00000180366902362813321300000000022991660221081272_" class="st0" d="M582.8,736.9c0.9,0,1.7,0.4,2.6,0.7
			C584.5,737.4,583.5,737.4,582.8,736.9 M616.8,686.2c4.8-4.5,0.6-8.4-1.2-12.1c-6.5-13.5-19.4-19.1-31.7-25.4
			c-0.4-0.2-1.1-0.5-1.3-0.3c-4.6,3.2-7.9-1.2-11.8-1.9c-3.8-1-7.7-0.5-11.5-0.4c-0.5,0.1-1,0.2-1.5,0.4c-2.5,1-3.6,3.1-4.6,5.3
			c-0.2,0.4-0.3,0.9-0.4,1.3c-0.2,0.8-0.2,1.7-0.2,2.5c-0.9,1.7-2.2,3.1-4.3,3.7c-0.3-0.2-0.7-0.4-1.1-0.5c-1.1-0.3-2.1-0.4-3.2,0
			c-1.2,1.2-1.8,2.9-2.8,4.2c-2.1-0.7-4.2,1.4-6.3,0.2c-1.3,0.6-2.6,1.3-3.8,1.9c0,0.1,0,0.3,0,0.4c-0.1,0-0.2,0-0.3,0
			c-1.7,1.9-3.3,4-6.2,4.1l0,0c-0.7-0.6-1.1-1.2-1.8-1.8c-1.6,0.1-2.7,0.8-2.9,2.2c-0.2-0.1-0.4-0.2-0.5-0.2
			c-1.6-0.4-2.8-1.4-4.1-2.4c-0.7-0.5-1.5-0.9-2.4-0.9c-0.8,0.2-1.4,0.5-1.7,1.2c-2-0.9-2.8,0.7-3.7,2c-5.4,3.3-5.5,3.4-0.5,7.3
			c2.6,2.1,2.7,4.7,2.4,7.6c-0.1,0-0.2,0.1-0.2,0.3c0,0.1,0,0.1,0,0.2c-1.5,0.5-2.2,1.7-2.6,3.2h-0.1c-0.9,0-1.8,0.1-2.5,0.6
			c-1.3,1.4-1.1,2.9-0.6,4.1c0.8,1.7-0.4,2-1.9,2.1c-0.4,0,0.3,0-0.1,0c-3.7,0.4-2.8,5-5.6,6.2c-1.2,0.5-2.9-1.7-3.9-0.8
			c-0.5,0.5-0.6,3.6-0.6,4.3c2.7,7.1,0.2,13.4-3.1,19.6c-1.5,2.7-1.3,5,0.9,7.2c1.2,1.2,3.1,2.1,2.5,4.3c-0.9,0.3-1.5-0.1-2-0.4
			c-1.4-0.7-3-2.6-4.5-0.8c-1.7,1.9-0.8,4.1,0.7,6c0.7,0.9,1.5,1.6,2.4,2.2c3,2,4.2,4.9,4.2,8.4c0,1.5-0.1,3.1,0.8,4.6
			c1.9,1.5,4.8-0.7,6.4,1.7c1.8,1.4,3.6,0.3,5.3-0.2c2.7-0.8,5.2-2.1,7.7-3.3c2.5-1.1,4.1-0.9,5.1,1.8c0.3,0.9,1.3,2.6,2.1,3.2
			c1.4,0.5,2.4,0.8,3.7,1.3c0.6,0.1,1.7-0.1,2.3-0.3c0.4-0.1,0.3-0.8,0.7-0.9c1.6-0.3,3.2-0.5,4.8,0.3c2.1,0.5,0.8,2.3,1.3,3.3
			c1.1,1.7,0.2,2.8-1,4c-1.7,1.7-3.4,4.3-2.7,7c1,0.9,2.7,0.2,3.7,1.1c0.4,0.3,0,1.1,0.4,1.3s1.7,0.6,2.2,0.7
			c6.9,1.5,13.7,1.4,20.5-1.2c-2.4-2.6-5.8-0.1-9.9-1.9c5.8-0.8,9.9-3.4,14.8-2.1c2,0.5,4.1,0,4-2.5c-0.1-2.9,1.5-2.3,2.9-1.8
			c1.7,0.7,4,0.5,3.5-1.1c-0.8-3,1.1-5,1.6-7.5c0.4-2.2-0.3-4-2.8-4.6c-0.7-0.2-2,0.2-1.9-0.7c0.3-3.3,3-4.6,5.6-5.6
			c2.1-0.9,5.2,0.6,5.1,1.9c-0.1,7,3.7,2.3,5.1,1.6c7.1-3.9,9.2-8,4.2-12.3c-0.4-1-1.2-1.4-2-1.6c0.9,0.2,1.8,0.3,2.8-0.2l-1-3.6
			c-0.2-0.8-0.2-1.5,1-0.9c4.4,4.7,8.2,4.8,10.9-0.3c1.4-2.7,3.1-2.5,5.2-2.7c0.6-0.4,1.1-0.8,1.4-1.4l0,0c0,0.1,0,0.2-0.1,0.3
			c0.1,0.5,0.3,1,0.6,1.4c1.8-1.9,2.8-4.1,2.8-6.8l0,0c0.9-6.6,1.7-13.2,5.9-18.8c0.8-1.9,1.7-3.9,2.5-5.8c0-4,3-8.2-1-11.9
			C616.7,686.8,616.6,686.3,616.8,686.2"/>
		<path id="Fill-90_00000121981358248280481760000010341159933255551365_" class="st2" d="M541.7,588.2c-5.3-7.1-6.4-16.3-11.8-23.3
			c-2.6-3.4-2.9-7.4-1.9-11.6c0.4-1.8,1.4-3.3,3.4-3.2c1.4,0,2.9,0.6,3.2-1.5s-1.1-3-2.9-3.6c-1.6-0.5-4.2-1-4.2-2.5
			c-0.2-4.4-2.9-6.5-6-8.7c-1.4-1-1.9-2.7-2-4.6c-0.2-4.8-5.1-7.9-4.6-13.1c0-0.3-0.5-0.8-0.9-1c-3.6-2.4-6.9-5.4-11.1-6.7
			c-3.2,2.2-6.2,2-9.4-0.2c-2.7-1.8-5.9-2.9-8.8-1c-3.1,1.9-6.1,1.9-9.4,1.5c-1.9,0.1-2.8-2.2-4.7-2.7c-0.9-0.4-3.8-3.3-4.5-4
			c-1-1-1.3,1.7-2.2,0.6c-0.7-0.8-0.7,0.7-1.6,0c-4.7-1.6-8-0.7-12,0.5c-1.4,0.4-2.7,4-4.3,3.6c-2.6-0.7-5.2-0.2-7.8,0.2
			c-2.6,0.1-6.3-2.5-7.4-0.4c-1.6,3.1-5.2,5.7-4,10.2c1.1,4-0.5,6.1-4.4,6.8c-4.6,0.8-6.1,4.9-8.5,8.1c-0.6,0.8-0.3,2,0.4,2.6
			c2.5,2.4,3.6,5.7,5.6,8.4c6.2-1.1,7.3-0.4,9.1,5.8c1,3.3,3.4,5.6,5.5,8.1c1.2,1.5,1.7,2.6-0.1,4.3c-2.5,2.5-2.6,6.4-5.2,9.1
			c-1.2,1.3-0.4,4,1.5,4.9c5.6,2.6,6.8,8.6,10.2,12.9c1.8,0.3,2.9,1.3,3.9,3c2.8,4.9,5.9,9.6,8.6,14.5c1.7,3.2,4.3,4.1,7.4,2.7
			c2.5-1.1,4.1-0.9,6.3,0.9c4.3,3.8,7.8,3,10.6-2.1c1.1-2,2.3-3.8,4.5-4.5c2.1-0.7,3.9-1.9,5.1-3.9c0.7-1.1,1.6-2.4,2.9-0.9
			c3.2,3.8,6.2,2.5,9.2-0.2c1.3-1.2,2.5-1.4,4.1,0c4.9,4.3,8.6,3.4,11.4-2.6c0.7-1.5,8-3.2,9.3-2.2c1,0.8,1,1.9,0.7,3
			c-0.3,1.5-0.5,3.1-0.2,4.7c0.3,1.7,1.2,2.9,2.9,3.3c1.8,0.4,3.1-0.4,3.7-2.1c0.6-1.7,2-2.8,2.6-4.4c-3.7-3.9-8.4-6.9-10.4-12.4
			c-0.8-2-2.9-2.3-5.2-2c-3.2,0.4-6.5,0.9-9.6-0.6c5.2-1.5,10.5-2,15.9-1.8l0,0c0.3,0.3,0.8,0.6,1,1c2.2,4.5,4.3,9.2,10.7,8.2
			c0.7-0.1,1.6,0.8,2.4,1.2c1.2,1,1.1,2.6,2,3.7C542.2,592.5,543,590,541.7,588.2"/>
		<path id="Fill-92_00000101102494591615900000000002389571769002522803_" class="st5" d="M551,622c-4.6-9.2-7.4-19.6-16.9-25.6
			c-2.1,0.4-3.2,1.8-3.6,3.8c-0.2,1.2-0.7,2.1-2.1,2c-1.4-0.1-2.4-0.9-2.6-2.3c-0.3-1.9-0.4-3.7,0.7-5.5c0.5-0.8,1.1-1.4,0.4-2.5
			c-3.2-4.8-7.3,1.1-10.8-1c-0.5-0.3-1.9,0.2-2.6,0.7c-0.8,0.6,0.1,1.3,0.2,2c0.4,2.5-2,3.7-3.4,4.4s-4.1,1.4-5.2-1.2
			c-2.1-4.7-4.4-3.2-7-0.5c-2.4,2.5-5,3.4-7-0.6c-0.8-1.6-2.3-2.9-3.4-0.7c-1.6,3.4-4.1,5.2-7.6,6.3c-1.6,0.5-2.5,2.2-3.2,3.8
			c-2.4,5.5-6,6.1-9.8,1.4c-1.9-2.2-3.2-2.3-5.5-0.9c-2.8,1.9-5.1,2.1-7.1-1.7c-2.9-5.7-6.5-11.1-9.5-16.7c-1.4-2.6-2.4-1.6-3.7-0.2
			c-1.4-0.1-2.4,0.6-3.4,1.3c-4.4,3.5-8.5,18.5-5.5,23.5c2.4,1.7,7.2,2.9,8.3,5.9c2,5.7,4,11.4-0.5,17.2c-3.5,4.5-2,7.7,3.6,8.9
			c1.7,0.4,3.4,0.7,4.8,1.8c1.7,1.4,1.9,2.6-0.2,4c-4.5,3.1-4.8,6.7-0.8,10.5c1.3,1.3,3.2,2.2,3.2,4.3c0,4.7,0.9,7.2,4.5,9.4
			c3.9,2.3,8.6,5.9,10.8,9.7c1.3,2.3,1.5,4.5-1.1,6.1c-1.9,1.2-2.8,2.8-2.3,5.1c0.3,1.3-0.5,2.4-1.2,3.4c-1.5,1.9-2.2,4.1-2,6.6
			c1.1,2.7,0.3,5-1.1,7.5c-2.3,3.9-1.4,7.4,1.8,9.4c2.9,1.8,5.6,1,8.4-2.4c0.7-0.8,1.2-1.8,2-2.6c1.6-1.5,3.2-2.2,4.2,0.6
			c0.9,2.4,2.5,4.1,5.2,3.9c2-0.1,3.6-1.2,4.1-3.2c0.7-2.6,0.5-5-2.2-6.5c-0.1-0.1-0.4-0.2-0.7-0.3c0-0.4,0.1-0.7,0.8-0.8
			c3.3-0.2,5.3-0.4,6.9-2.8c0,0,1.9,1.4,1-0.2c1.2,0.7,1-1.6,1.9-2.5c0.3-0.4,0.7-0.8,1-1.2c0.4-0.6,0.5-1.2,0.3-1.9
			c1-0.1,2.1,0.5,3.1,0.1c0,0.1-0.1,0.1-0.1,0.2c-0.1,0.2,0,0.4,0.3,0.6c2.4,0.1,2.1-1.9,2.5-3.2c0.6-1.7,1.1-3.2,3.2-3.4l0,0l0,0
			c0.3,0,0.6,0.1,0.9,0.1c2-2.1,0.1-3.5,0.1-5.6c0.4-0.5,0.5-0.7,0.8-0.9c0.9-0.1,1.9-0.1,2.8-0.2c0.2-0.3,0.3-0.7,0.3-1
			c1.2-0.5,1.4-2,2.5-2.7c0-0.3-0.1-0.6-0.1-0.9c0.1,0,0.2-0.1,0.4-0.1c1.6-3.3,0.7-6.1-2-8.2c-2.9-2.1-3.1-3.9-0.1-5.9
			c1.1-1.1,2.1-2.3,3.7-2.8c0.6-0.3,1.3-0.6,1.9-0.9c0.6,0.3,1.2,0.7,1.8,1c1.6,0.5,2.8,1.6,3.9,2.6c0.3,0,0.6,0.1,0.9,0.1
			c1.1-0.7,2.1-1.6,2.8-2.6c0.3,0.9,0.9,1.5,1.9,1.6c4.4,2.7,5-1.3,6.6-3.7c0.1,0,0.1-0.1,0.2-0.3c0-0.1,0-0.2-0.1-0.3
			c1.5-0.2,3-0.5,3.8-1.9c2.1,2.1,4.3,0.5,6.4-0.2c1.1-0.9,2.8-1.4,2.1-3.4c-2.5-0.4-3.5-2.4-4.9-4.2c-0.6-3.8-2.2-5.9-6.1-4.8
			c-0.2-0.7-0.4-1.4-0.8-2c0.3-0.4,0.7-0.8,1.1-1.1c0.2-0.1,0.4-0.3,0.6-0.4c2,0.2,4.1,0.6,6.1-0.2c0.4-0.1,0.7-0.4,0.8-0.8
			c0.2-2.1,1.1-3.9,2.2-5.6c0-0.2,0-0.3,0-0.5c0.1,0,0.1,0,0.2,0c1.7-1.3,3.7-2.4,5-4.3c0.1,0,0.3,0,0.4,0c0.6-0.6,1.2-1.3,1.8-1.9
			c0.4-1.6,1.1-3.2,1-4.9c0.3-0.5,0.5-0.9,0.7-1.4C551.7,625.9,552,623.9,551,622"/>
		<path id="Fill-94_00000137824407191445469480000003238060280512596652_" class="st4" d="M485.2,500.8c4.1-5.2,2.6-9.3-1.6-12.9
			c-0.9-0.8-1.6-1.8-2.4-2.8c-0.7-4.7-0.2-9.6-1.9-14.2l0,0c-1-7.7-3.2-15.1-5.5-22.5c-0.3-1-0.4-2.3-0.1-3.2
			c1.3-3.9,2.2-7.7-0.7-11.5c-0.8-1.1-0.2-2.7,0.4-4c2.8-6.1,0.8-12-4.3-16.1c-1.7-1.4-4.4-2.9-4.9-4.5c-2.1-6.5-8.8-7.7-9.5-14.9
			c0,0.2-0.8-2.4-0.8-2.1c0,1.8,0.9,4.4-1.3,5.7c-4.3,2.6-7.2,7.3-12.5,8.6c-2.2,0.5-2,2.1-1,3.6c1.5,2.4,3.1,4.7,4.4,7.1
			c2.1,4,1.4,5.7-3,6.8c-2.7,0.7-4.9,1.9-5.1,4.6c-0.3,3.4-2,3.2-4.5,2.7c-6.1-1.3-9.7,1-10.6,7c-0.3,2.4-1.4,4-3,5.6
			c-0.6,0.7-0.5,1.4-0.1,2.1c1.2,2.1,3.4,3.1,5.4,4.3c3.3,2.1,3.4,3.5,0.1,5.2c-3,1.6-4,3.7-3,6.9c0.5,1.6-0.1,3-0.6,4.5
			c-2,6.7,1.4,10.7,8,9.6c2-0.3,2.5,0.6,2.7,2.2c0.2,1.4-0.3,2.8-0.6,4.1c-1.2,5.1,0.3,9.7,3,13.8c2.1,3.2,5.4,5.7,4.4,10.2
			c-0.2,0.8,0.7,1.3,1.5,1.6c2.8-0.8,5.5-1.3,8.5-0.1c2.2,0.9,3.8-0.2,5-2.7c1-2.1,3.6,2.9,5.2-0.4c0.1-0.1,0.2-0.2,0.3-0.4
			c1.4-2.7,3.3-2.2,5.4-1c0.6,0.4,1.2,0.2,1.8,0c0.4-0.2,0.6-0.9,1.2-0.4c-0.3,0.3-0.6,0.7-0.6,1.2c2.7,2.8,6.3,3.7,9.8,5
			c2.6,0.1,5.6,2,7.7,0.3c4.9-4,8.9-1.9,13.2,0.8c3.1,2,5.9,1.7,7.5-2.2C497.6,505.4,493,500.5,485.2,500.8"/>
		<path id="Fill-96_00000025422663974655213120000008470820095856904075_" class="st6" d="M589.7,784.6c-6.4-0.1-12.6,1.6-18.8,3
			c-2.6,0.6-6.1,2.3-7.6,0.6c-2.6-2.9-5.4-2.9-8.7-3c-1.4,0-2.9-0.7-3-2.4s1.7-1.5,2.8-1.9c2.2-0.8,3.1-2.9,1.2-5
			c-7.3,0-14.8,2-21.9,0.2c-0.4,0.8-0.7,0.8-1.4,0.3c-1.7-0.5-2.5,1.1-3.8,1.5c-0.8,0.3-1.6,0.5-2.3,0.9c-0.4,0.2-0.7,0.5-1,0.8
			s-0.5,0.7-0.7,1.1c-1.3,2.3-1.5,6.5-5.8,4.5c-2.2-1-4.1-2-6.5-1.1c-1.4,0.5-2.3-0.4-3.1-1.5c-0.9-1.2-1.6-2.7-3-3.4
			c-1.6-0.2-3.2,0-4.8-0.3c-2,0.1-4.3,3.2-6.1-0.3c-0.2-2.4-0.2-4.7,0.1-7.1c0-1.9-0.2-3.8,0.1-5.7c0-1.1-0.4-2-0.8-3
			c-0.7-1.3-0.6-2.6-0.2-3.9c0.1-0.6,0-1.2-0.4-1.7c0.1-6.2-0.2-12.3-6.8-15.7c-1.9-1-3-3.5-1.4-5.2c1.4-1.5,2.4,1.1,3.6,1.9
			c1.2,0.9,2.5,1.7,3.7,0.5c1.2-1.3,0.9-3-0.1-4.3c-0.9-1.1-2-1.9-3.1-2.8c-1.4-1.2-2.4-2.7-1.1-4.4c2-2.7,2.3-6.2,3.7-8.7
			c2.7-4.8,1-9.1-1-13.2c-1,0.1-1.5,0.8-2.5,0.9c-2.7,1-4.5,3.3-7.5,4.1c-1.4,0.4-1.4,1.8,0,2.6c2.6,1.5,2.5,3.9,1.5,6.1
			c-0.6,1.5-2.2,2.3-3.9,2c-2.4-0.4-3.1-2.1-3.3-4.4c-0.2-3.1-2-3-4.3-1.8c-1.7,1-2.8,2.5-3.7,4.1c-1.7,2.9-3.9,4.7-7.3,2.6
			c-3-1.8-3.5-5.5-0.8-8.5c2.5-2.8,2.2-5.3-0.1-8c-3.9,1.4-7.1,4.1-9.6,7.1c-2.7,3.2-5.3,7-7.6,10.6c0.2,2.4,0.9,5-1.3,6.4
			c-3.8,2.6-4.1,6.1-3.6,10.2c0.4,3.7-0.5,7.1-2.2,10.4c-0.4,0.9-1.7,2.9-1,4.3c0.2,1.5,3.9,2,3.9,2.2c0.3,0.4,0.2,2.1,0.8,1.7
			c-0.3,2.1,1.2,12.3,2.4,14.1c0.4,2-0.2,9.8-2,10.5c-6.5,2.5-7.5,4.3-6.2,11.2c0.6,3.1,1.3,5.5,1.3,8.7c0,2.7-1.1,3.9-3.4,2.7
			c-2.2-1.1-4.5-2-7-2.5c-2-0.4-4.5-1.4-5.3,1.1c-0.7,2.4-0.3,4.4,2.5,5c1.5,1.1,1.5,2.8,1.9,4.1c1.5,1.5,1.9,2.9,1.4,5.3
			c-1.5,3.1-1.2,4.7,0.5,8.9c1.7,0.9,4.2,1.5,5.9,2.4c0.1,0.9,2.5,0.8,0.9,2.4c-1.5,1.4-0.4,2.4,0.9,2.7c4.9,1.1,8.3,4.8,12.2,7.4
			c3.4,2.3,6.6,1.4,8.5-2.2c0.6-1.1,0.9-2.3,2.1-3c1.3-0.7,4.1-0.2,3.2-2.9c-0.6-2-2.7-2.6-4.6-3.5c-6.6-3-13.4-1.4-20.2-1.4
			c0.2-0.9,0.4-1.6,0.6-2.4l0,0c1.1-0.8,2.3-0.4,3.5-0.5c7.7-0.8,8.9-2.2,6.9-7.9c0-0.7,0-1.4,0-2.1l0,0l0,0c1.4,0.3,2.5,1.1,3,2.6
			c2.3,7.3,4.7,8.3,11.1,5c2.5-1.3,9.5,0.4,11.7,3c-1,0.6-2.7,0.3-2.9,1.8c-0.2,1.6,1.1,2.5,2.3,3.3c2.4,1.6,5,2.4,7.4,0.5
			c3.6-2.8,7.7-3.1,12-3c3.4,0.1,7,0.6,10.2,0c8.4-1.6,15.7,0.4,22.2,5.7c2.8,2.3,6,3,9.5,1.1l0,0l0,0l0,0l0,0
			c3.5-3,7.9-4.1,12.2-5.4c4.1-1.3,9.3-1.3,12.1-4.4c3-3.3,5.2-3.1,8.7-1.7c3.4,1.3,6.7,1,6.7-4c0-5.2,4.1-6.9,7.8-8.8
			c2.5-1.3,5.1-2.3,7.7-3.3c4.5-1.6,6.1-4.8,6-9.4c0-2.9-0.6-5.9,0.8-8.8C595.8,785.5,595.2,784.7,589.7,784.6"/>
		<path id="Fill-98_00000140718015255065854020000013524711989495662512_" class="st7" d="M12.4,705.1c0.3-0.2,0.7-0.4,1-0.6v0.1
			C13,704.8,12.7,704.9,12.4,705.1 M242.4,524.6c-4-1.9-6.9-5.4-11-7.1c-4.9,0.5-9.6,2.2-14.6,1.9c-4.8-0.3-4.8-1-4.1-5.8
			c0.5-3.3,0-5.3-4-5.9c-2.4-0.4-3.2-2-3.7-4.2c-0.9-3.8-1.8-7.6-3-11.3c-1.2-3.7-5-6.2-6.9-4.4c-3.7,3.5-9.5,5.8-9,12.7
			c0.3,4.3-5.7,8.9-10,7.7c-2.3-0.6-4.3-0.8-6.2,0.7c-1.6,1.3-2.1,1.5-3.6-0.4c-0.4-0.5-0.9-1-1.4-1.4c-2.6-1.8-2.1-3.2-6.2-5.9
			c-1.3-0.9-3.6-1-4.9-1.6c-0.3,0-0.9-1.5-0.6-1.8c1-1.2,1.6-2.7,0-3.6c-5.4-3.3-8.5-8.4-11.4-13.8c-1.2-2.3-0.1-2.4,1.5-3.2
			c4.2-2.2,7.5-6.8,13.2-3.8c0.3,0.2,1.5-0.9,2.1-1.5c1-1,1.9-2.1,3.4-2.2c1-0.1,2-0.5,2-1.6c-0.1-1.3-1.3-1.1-2.2-1
			c-2.3,0-3.9-1.2-5.2-2.7c-1.6-1.8-1.2-3.8,0.4-5.5c1.2-1.2,2.7-2,4-0.4c2.2,2.7,4.3,1.4,5.9-0.3c1.9-2,4.9-0.4,6.6-2.7
			c3.5-4.5,7-9.4,8-14.6c1.6-8.1,6.9-8.1,12.7-8.5c4-3.9,8.4-7.4,13.3-10.3c1.6-0.9,3.2-2.3,2.8-4.5c-0.4-2-2.4-1.9-3.8-2.3
			c-2.6-0.8-4.6-2.3-5.7-4.5c-1.9-4.1-5.3-5.2-9.6-5.9c0.2,1.6,0.2,2.9,0.6,4c0.8,2-0.2,2.3-1.9,2.5c-7.8,0.8-7.8,0.9-8.8,8.7
			c0,0.4-0.4,0.7-0.9,1.4c-2-2.9,0.8-7.2-2-8.7c-2.7-1.4-6,1.1-9.2,1.2c-3.6,0.1-4,3-2.8,6.2c-1.7-2.5-6.2-2.1-6.2-6.2
			c0-1-1.7-0.1-2.1,0.6c-2.1,4.3-5.7,5.5-10,4.1c-3.7-1.3-5.1,0.7-5.3,3.7c-0.3,4.7-2.9,5-6.5,3.8c-0.3,1.7,1.6,3.4-0.6,4.5
			c-1.9,0.9-2.4-0.7-3.1-1.9c-0.5-0.9-1.2-1.6-2.2-0.7c-1,0.8-1.2,2.3-0.2,2.9c3.2,1.8,6.8,3.2,5.3,8c0,0.1,0.2,0.2,0.3,0.3
			c1.5,0.8,2.1,1.7,1.1,3.4c-0.9,1.4-2.1,1.8-3.6,1.4c-1.6-0.4-3.3-1.7-4.7,0.3c-1.8,2.5,2.5,2.4,2,4.4c-2.4,1.8-5.2,0.9-7.8,1.1
			c-3.9,0.3-8.8,5.5-7.6,8.1c1.8,4.2,7.7,7.2,12.2,5.6c2.1-0.7,2.8,1.1,4,1.6c1.4,0.6-0.3,1.3-0.8,1.9c-0.5,0.6-1.2,1.2-0.4,1.9
			c0.7,0.6,1.6,0.4,2.1-0.2c3.3-3.8,8.5-1.5,12.3-4c-2,2.3-4.3,4.2-5.5,6.9c-0.4,1-1.1,1.6-2.2,1.3c-3.9-1-1.6,1.8-1.8,3
			c-1.7,1-3.6,0.2-5.4,0.5c-1.1,0.2-2.8-0.9-3.1,1.2c-0.1,0-0.2-0.1-0.4-0.1c-0.2,0.1-0.4,0.2-0.6,0.3c-0.5,2.7-2.8,2.4-4.7,3
			c-2.6,0.8-6.2,2.8-4.3,5.3c2.6,3.4-0.3,6.8,2.9,10.6c-3.3-1.8-4.2-4.7-6.5-4.6c-3.9,0.1-6.8-1.7-10-3.3c-2.6-1.2-6-2-6.7,2.7
			c-0.2,1.6-1.4,3.2-2.9,3.3c-1.5,0.1-1.4-2-2-3.2c-0.6-1.3-1.6-2.2-1.6-3.8c0-3.6-2.7-4.6-5.6-5.3c-6.8-1.6-14-1.3-20.4-4.4
			c-0.8-0.4-1.8-0.4-2.8-0.3c-1.8,0.1-3.8,0.3-1.8,2.9c1.9,2.4-0.1,2.6-1.7,2.6c-1.8-0.1-3.3-1-4.4-2.4c-1.2-1.6-2.6-1.4-4.1-0.5
			c-3.5,2.2-5.5,12.6-2.8,16.8c-1.1-3.3,1.8-4.4,3.1-6.4c0.5-0.8,1.1-1.6,2.2-1.3c1,0.3,1.4,1.2,1.4,2.2c0.1,1.9,0.4,3.8-1.8,4.9
			c-1.6,3.6,1.6,6.5,1.4,10c-0.9-2.8-0.8-6.5-5.2-6.3c-3.1,0.2-6.3-0.7-9.1,1.3c-0.8,0.6-2.1,1.2-1.6,2.5c0.4,1.1,1.6,0.9,2.4,0.8
			c2.7-0.2,3.7,1,4.9,3.6c1.5,3.3,2.9,7.4,8.6,7.3c4.3-0.1,8.7,0.1,13.1,0.4c0.9,0.1,2,0,2.5,0.9c0.7,1.1-0.3,2-1,2.2
			c-2.8,0.9-0.9,3.5-1.7,5c-2.6-0.4-4.9-0.8-7.1-1.2c-4.9-1-7.3,0.3-9.2,4.9c-0.8,1.9-0.5,4-1.1,5.9c-0.5,1.6-0.7,4.6-3.9,2.9
			c-1-0.5-1.9-1.5-2.9-0.4c-1,1.1,0.1,2,0.6,2.9c1,1.9,0,2.2-1.6,1.8c-1.2-0.3-2.4-0.8-3.5-1.3c-1.7-0.6-3.6-2.3-4.9,0.1
			c-1.2,2.3,0.8,3.8,2.3,4.4c5.1,2,3.9,3.2-0.2,4.7c-1.3,0.5-2.6,1.6-2.4,3.2c0.2,1.8,1.9,1.2,3,1.4c1.2,0.2,1.9,0.9,2.5,1.9
			c1.6,2.9,3.9,3.2,6.8,2.2c1.4-0.5,2.9-0.7,4.6,0c-0.5,0.4-0.8,0.7-1.1,1c-1.4,1-3.9,1.1-3.7,3.6c0.2,2.1,1.7,3.4,3.4,4.1
			c2.1,0.9,4.1,0.3,5.4-1.6c2.1-3.1,5-1.7,8-2.3c-1.3,2.8-2.3,5-3.3,7.2c-0.5,1.1,0,3,0.6,2.8c3-1.4,5.2,2,7.3,1.4
			c7.1-2.1,13.8,2.6,20.8,0.4c0.6-0.2,1.7,0.2,1.5,0.7c-1.2,2.7,2.1,3.7,2.3,6.6c-2.5-1.9-5.3-2.2-6.5,0c-1.7,3.2-3,1.8-5,0.7
			c-2.4-1.3-5.3-2.4-7.3,0.2c-2.9,3.7-6.6,6.7-8.7,10.9c-2.2,4.4-2.3,4.6,2.6,5.8c-2.2,2-3.6,4.4-5.2,6.6c-1.5,1.9-2.2,5.4-4.6,5.6
			c-3.4,0.3-5.2,2.6-7.6,4.1c-0.9,0.7-2.4,0.5-2.8,1.9c-2.9,2.6-5.9,5-9.7,6.3c-1,0.3-2.3,0.8-2,2.2c0.3,1.5,1.8,1,2.8,0.8
			c6.2-1.2,12.8-1,18.1-6.6c-2.5,5.7,1.1,5.7,4.2,5.7c2.2,0.1,4.4-0.2,7.2-0.3c-4.5,3.7-8.9,3.5-13.3,2c-3.2-1.1-6-0.8-6.8,2.5
			c-0.7,2.9-2.5,3.4-4.7,4.4c-2.6,1.2-4.9-0.2-7.3-0.1c-0.8,0-1.6-0.1-2.1,0.7c-0.5,0.9,0.2,1.6,0.8,2c4.4,2.9,3.7,5.9,0.9,9.8
			c-1.1,1.5-1.5,2.7-3.6,2.6c-2.1-0.1-3.2-0.9-3.4-3.1c-0.1-1.2-0.4-2.7-1.7-3c-1.6-0.4-1.8,1.4-2.5,2.4c-0.9,1.5-2.1,3.3-3.9,1.9
			c-3.9-3.2-7.4-3.5-10.5,0.1c-1,1.2-1.6,1.4-3,1s-2.8,0.4-2.7,1.8c0.1,2.1-2,4.2,0,6.2c1,1,2.4,1.8,3.3,0.9
			c2.4-2.3,4.6-0.7,6.9-0.2c2.7,0.7,5.4,1.7,8.3,1.4c3.3-0.3,5.7,0.9,7.2,3.9c-2.9,2.1-5.8,3.4-9.5,2.8c-3.6-0.6-7,1.2-9.2,3.8
			c-1.8,2.1-3.3,3.4-6,3.5c-1.7,0.1-2.7,1.5-2,2.9c1.7,3.5,1.5,8.1,5.6,10.3l0,0l0,0c0,0.3,0,0.6,0,1l0,0
			c-10.5,0.6-5.5,18.1-1.8,16.4c1.2-0.6,2.3-1.8,4.1-1c-0.9,2.2,6.2,2.4,6.2,2.4c1.3-1.3,3.1-1.4,4.7-1.9l0,0
			c4.7,0.6,9.2,0.3,12.8-3.4c0.4-0.4,1.5-0.1,2.2,0.1c2.4,1,4.3,0,6.1-1.4c1.5-1.2,3-3.1,4.6-0.7c1.6,2.4-0.7,3.6-2.5,4.6
			c-1.2,0.7-2.6,1-3.9,1.5c-3.1,1.1-6.5,1.4-9.2,3.3c-1.1,0.8-2.8,1.5-2,3.2c0.7,1.6,2.3,1.4,3.7,1c1.5-0.4,2.9-0.9,4.3-1.4
			c-2.2,1.9-4.7,2.8-7.1,3.6c-2.8,1-5.2,5.3-3.6,5.8c2.2,0.8,5.2,3,7.1-0.2c1.7-3,4.5-3.1,7.1-3.7c3.4-0.7,6.9-1.5,10.3,1.1
			c-1,1-3.1,1.8-2.2,3.9c0.4,1,1.4,1.7,2.2,1c2.9-2.7,7.1-1.8,10.2-4.2c3-2.3,6.6-2.6,9.5,0.2c1.9,1.8,3.4,1.6,4.6-0.4
			c1.7-2.7,3.2-2.8,5.3-0.4c2.1,2.4,4.7,1.3,5-1c1-6,3.4-4.1,6.3-1.7c2.4,2,4,1.4,3.5-1.7c-0.6-4,2.1-4.6,4.8-5.3
			c7.7-2.1,8.3-2.8,8.4-10.1c1.2-0.1,1.7,0.7,1.9,1.6c1.1,4.2,4.4,3.8,7.6,3.4c0.7-0.1,1.4-0.7,2-1.2c3.9-3.5,10.9-3.2,12.2-9.9l0,0
			l0,0c0.6,0.3,1.3,0.6,1.9,1c2.2,1.5,4.4,0.6,6.6,0c1.4-0.7,2.8-1.3,4.1-2.2c2.7-1.9,6.3-3.5,2.8-7.8c2.7-0.3,4.6-1.5,6.6-2.4
			c1.8-0.8,3.7-1.3,5.8-1.5c6.7-0.8,13.3,4.8,20.1,0.6c0.2-0.1,0.7,0,0.8,0.1c3,6.4,5-0.7,5.2-1.1c2.3-5.7,5.8-3.6,8.6-1.2
			c4.6,3.9,9.9,1,14.8,2.1c0.9,0.2,1.5-1,2-1.8c1.9-3.4,0.9-7.5-2.4-9.5c0.9-0.5,2.3-0.9,2.6-1.7c1.9-4.6,5.5-7.8,8.7-11.5
			c1.1-1.3,1.7-3.1,1.3-4.8c-2.1-8.6,4.6-14,7.8-20.6c2.5-5.2,6.6-9.6,3.7-16c-0.5-1.2-0.3-2.8,0-4.2c2.1-8.3,1.7-16.4-2.3-24.3
			c1.1-0.1,2-0.1,2.9-0.3c4.8-1.1,5-1.6,1.9-5.2c-1-1.2-0.8-2.6-0.9-4c-1.4-2.2,0.9-4.3,0.2-6.5c-2.2-8.3-4.6-16.6-3-25.2
			c0.5-2.9,0.2-4.8-2.4-6.3c-1.7-1-3.3-2.2-2.2-4.5c1.1-2.4,3.2-1.4,4.9-1c3.1,0.7,6.2,0.8,9.3,0.3c2-0.3,3.3-1.6,3.9-3.6
			C244.2,526.4,243.6,525.2,242.4,524.6"/>
		<path id="Fill-100_00000075136816688576321580000002044995955846240179_" class="st7" d="M49.6,657.7c-4.2,2.2-4.2,4.8,0.1,8.6
			c-2.5-6.1-2.1-7,2.7-6.7C52.3,657.6,51.6,656.7,49.6,657.7"/>
		<path id="Fill-102_00000030444687676368080880000003533388889853403056_" class="st8" d="M439.1,582.6c-1.3-0.8-2.1-1.8-2.3-3.3
			c-0.4-2.5-1.3-4-4.2-4.5c-2.6-0.5-4.4-3.5-2.3-5.2c2.4-2,4-3.4,3.4-6.6c-0.2-0.8,0.9-1.6,1.8-1.9c2.7-1,2.1-2.4,0.7-4.2
			c-2.4-2.8-5.1-5.5-6.5-9c-1.1-6.7-4.7-8.8-9.5-5.5l0,0l0,0c-1.5-2-0.6-4.9-2.9-6.6c-1.2-0.9-4.2-2.4-2.4-4.1c2.5-2.4,3.2-7,7.5-7
			c2.3,0,4.6,1.6,4.8-2.5c0.1-2.1,1.6-3.6,0.8-6.5c-0.7-2.4,2.1-5.9,3.4-8.9c0-0.1,1.1,0.3,1.7,0.4c1.7,0.4,3.3,0.7,5,1.1
			c-0.2-0.7-0.9-1.6-0.7-2.1c1.7-3.6-0.4-5.7-2.5-8.2c-2-2.4-5.7-4.5-3.1-8.7c0.1-0.2-0.5-1.2-0.9-1.4c-2.1-0.8-1.7-2.1-1-3.8
			c0.6-1.4,1-3,1.3-4.5c0.4-2-0.2-3.9-1.5-5.2c-1.7-1.9-2.6,0.6-3.8,1.2c-2.6,1.3-5-0.3-5.7-3.3c-1.1-4.5,2.4-8.7,0.3-13.3
			c-0.7-1.6,1.6-2.3,3.1-2.8c1.7-0.6,3.3-1.3,3.2-3.5c-0.1-2-1.3-2.9-3-3.7c-2.6-1.2-5.6-2.2-6.3-5.6c-3.8,0.6-6.5,2.9-8.9,5.6
			c-1.6,1.8-3.4,3.4-6,2.9c-3.7-0.7-5.5,1.4-6.4,4.6c-0.2,2.8-1.7,3.6-4.3,3.1c-1.9-0.4-3.9-0.7-5.8,0.2c-2.1,1-1.3,4.5-3.9,4.8
			c-3.6,0.5-4.8,3.1-5.5,6.1c-0.7,2.6-2.2,4.3-4.2,6c-2.3,1.9-4.3,4.1-4,7.5c0.1,1.6-0.8,2.9-1.3,4.4c0.1,2.7-3.9,4.8-2.7,6.6
			c2.7,4.3,5,8.6,7.1,13.2c0.9,1.9,1.7,3.1,1.3,5.3c-0.6,3.4-0.6,7.9,2.7,8.6c4.6,0.9,3.4,3.5,3.7,6.1c0.2,2.1,0.8,4.1,3,4.8
			c2.5,0.8,3.6-1.3,4.6-3c0.9-1.4,1.8-3,1.9-4.7c0.6,0.3,1.2,0.5,1.7,0.8l0,0c3.4,4.9,6.6-0.4,9.9-0.5c0.5,6.2,0.5,6.2-3.4,10.3
			c-1.3,1.4-2.3,3.2-1.5,5.1c0.8,2.1,2.3-1.4,3.5,0.3c-0.4,1.1-0.7,2.3-1.1,3.4l-1.7,4.6c-0.5-0.3-1-0.3-1.4,0
			c-0.1-0.1-0.1-0.1-0.2-0.2c-2.7-0.7-2.7,1.3-3.1,3c-0.3,0.1-0.6,0.2-0.9,0.1c-1.4-0.6-2-2-2.6-3.2c-1-2.1-2.1-1.3-3.1,0
			c-2.1,2.6-2.2,9.5,0,12.4c2.5,3.4,5.6,5.9,10.3,4.1l0,0c0,0.3,0,0.5,0.1,0.8l0,0c-4.4,2.5-9.6,3.4-13.4,7.1
			c-2.3,2.2-3,4.3-1.6,7.4c1.5,3.2,2.6,6.6,3.8,9.9c1.4,5.2,4.6,8.7,10.1,9.8c-5.9,0.7-7.3-0.1-9.4-5.3c-0.8-1.9-2-3.4-2.9-5.2
			c-3.2-1.7-6.2-1.3-8.3,1.6c-2.2,3-0.3,5.5,1.8,7.8c1.4,1.6,3.6,3.7,4,6c1.5,0.1,2.9,0.6,4.1,1.8c1.5,1.5,7.6,1.5,2.6,6
			c-0.3,0.2-0.1,1.4,0.2,1.7c4.1,4.2,5.2,10.6,9.3,14.8c4,2.2,8.8,2.4,13.2,3.3c2.7,0.6,5.4-1.1,6.5-3.8c1.3-3.1,3.1-5.3,6.4-6.1
			c0.7-0.2,1.5-0.7,1.9-1.3c1.8-3.1,4.3-4.5,7.9-4.9c2.4-0.3,4.9-1.8,3.2-5.3c-3.1-3.9,0.1-7.7,0.1-11.6c0-5.3,1.5-10.3,6.4-13.2
			C440.9,585.4,441,583.8,439.1,582.6"/>
		<path id="Fill-104_00000158741469834562331840000005960902442158228665_" class="st4" d="M467.2,684.5c-2.5-4.5-5.4-8.7-10.4-11.2
			c-2.5-1.3-5.6-3.6-5.1-6.2c0.7-4-1.5-5.1-3.8-7c-3.8-3-3.3-6.9,1-8.5c2.5-0.9,3.1-3.6,1.2-5.5c-1.6-1.6-3.7-2.3-5.9-2.7
			c-6.2-1.2-7-3.1-3-8.1c5.7-7.2,2.2-20.6-6.6-23.7c-0.1,1.1-0.1,3.4-1,3.5c-6.1,0.6-9.7,5.2-14.5,7.9c-2.2,1.2-3.6,1.8-4.4,4.2
			c-1.5,4.9-4.7,6.4-9.3,4.4c-3.2-1.4-6.5-2-10-2c-0.3,0.7-0.5,1.5-0.8,2.2c-2.3,5.1-2.8,5.2-6.8,1.6c-1.9-1.8-4-2.1-6.5-1.1
			c-3,1.2-5.3,3.3-7.3,5.7c-2.3,2.7-2.4,5.1,1.5,6.4c4.3,1.5,4.9,4.7,4.4,8.7c-0.4,2.8-1.9,5-3.5,7c-1.1,1.4-1.9,2.1,0.4,2.9
			c1.6,0.5,2,2,1.5,3.5s-1.3,2.8-3.2,2.9c-1.4,0.1-2.8,0.2-4.2,0.5c-5,1-5.5,2.7-2.8,7c2.5,4.1,7.1,4.7,10.5,6.8
			c-3.1,4.6-4.4,10-8.9,13.3c-0.2,0.2-0.3,0.5-0.4,0.8c-1.2,6.6-1.5,13.1,1.7,19.2c1.1,2.1,2.9,3.1,5,1.4c3.1-2.5,4.5-0.6,5.4,2.1
			c1.5,4.1,4.1,6.6,8.6,6.5c2.1-1.5,4.4-2.2,6.9-2.9c2.3-0.7,4.7-1.2,2.3-4.7c-1.2-1.7-1.2-4.3,0.3-6.2c1.5-2,2.7,0.6,4,0.5
			c2.4-0.2,3.5,0.6,4.2,3c0.5,1.8,2.6,2.1,4.4,1.6c2-0.5,3.8-1.4,5.8-1.9c3.5-1,6.9-3.8,10.7-2.3c2.7,1.1,3.1,0.4,3.3-2.1
			c0.1-1.8,1.4-3.2,3.4-3.4c2.1-0.1,3.1,1.6,3.5,3.2c0.7,2.6,2,5,1.8,7.7c-0.1,1.6-0.3,3.3,2.2,3.2c2.1-1.2,3.9-2.7,4.6-5
			c1.9-6.5,8.5-8.2,12.4-12.7c-0.4-4.4,6.6-6.7,3.4-11.9c-0.1-0.2,1.2-1.5,2-1.7C469.4,690.2,468.7,687.1,467.2,684.5"/>
		<path id="Fill-106_00000087402776610312506550000006884147316234449292_" class="st4" d="M533.7,767.4c2.2-1.5,1.1-2.8-0.5-3.9
			c-0.6-1.2,2.6-3.5-1-3.9l0,0l0,0c-2.2-1.4-4.3-1.7-6.4,0l0,0c-0.7,0.1-1.3,0.2-2,0.4c-1.1-0.8-1.7-2.9-3.6-1.2l0,0l0,0
			c-0.4-0.7-0.9-1.3-1.1-2c-1.2-4.2-3-5.4-7.2-2.9c-3.4,2-7.1,4.3-11.5,3.9c-1.6-3.7-4.2-2.4-6.4-1.5c-0.1,0.5-0.1,1.8-0.2,2.4
			c-1.1,1.3-1.2,2.7-0.2,4.1c0.5,0.8,0.9,1.6,1.4,2.4c-1.1,1.9-1.7,3.8-0.2,5.7l0,0c-1.8,2.8-0.6,5.8-0.8,8.8c2.6,3.9,5.1,1.5,7.6,0
			c1.5,0.7,3,0.5,4.5,0.2l0,0l0,0c1.7,2.3,2.3,7.4,6,5.5c4.3-2.1,5.6,2.9,8.6,2.3c1.4-0.3,2.8-1.4,3.3-3c0.5-1.3,0.8-2.7,1.3-4
			c0.1-0.3,0.2-0.6,0.3-0.8c0.3,0,0.5,0,0.8-0.1c0.6-0.3,1.2-0.5,1.8-0.8l0,0c1,1.3,1.8,1.4,2-0.4c0.2-1.2,0.6-1.7,1.8-1.5
			c0.4,0.8-0.5,2.7,0.9,2.4c1.6-0.3,0.6-2.2,0.8-3.4c-0.2,0-0.4,0-0.6-0.1c0-0.3-0.1-0.6-0.2-0.9c-0.9-1.6-3.7-1.5-3.7-1.5
			C530.3,770.9,531.3,769,533.7,767.4"/>
	</g>
</g>
</svg>
