<svg width="30" height="26" viewBox="0 0 30 26" xmlns="http://www.w3.org/2000/svg">
  <path d="M16.325 22.341c-.35.338-.846.508-1.486.508-.624 0-1.112-.172-1.463-.52-.35-.346-.525-.82-.525-1.42 0-.624.173-1.104.52-1.44.347-.334.836-.502 1.468-.502.656 0 1.155.165 1.497.492.343.326.515.81.515 1.45 0 .617-.176 1.094-.526 1.433zm.48-16.492-.583 11.154h-2.788L12.851 5.85h3.954zM29.57 22.811 16.717 1.012c-.797-1.35-2.787-1.35-3.583 0L.28 22.813c-.796 1.35.2 3.037 1.792 3.037H27.78c1.592 0 2.588-1.688 1.791-3.038z" fill="#FFF" fill-rule="evenodd"/>
</svg>
