<svg width="151px" height="32px" viewBox="0 0 151 32" version="1.1" xmlns="http://www.w3.org/2000/svg" xmlns:xlink="http://www.w3.org/1999/xlink">
  <title>MyHACCP</title>
  <g id="symbols-my-haccp-logo" stroke="none" stroke-width="1" fill="none" fill-rule="evenodd">
    <g id="myhaccp/desktop" transform="translate(-511.000000, -59.000000)" fill="#FFFFFF" fill-rule="nonzero">
      <g id="MyHACCP" transform="translate(511.414062, 59.483398)">
        <path d="M9.57012879,22.9281115 L4.1279877,5.19477104 L3.98884205,5.19477104 C4.00945622,5.61736154 4.04295425,6.25382406 4.08933613,7.10415861 C4.13571802,7.95449315 4.17952313,8.8589399 4.22075147,9.81749884 C4.26197981,10.7760578 4.28259398,11.641853 4.28259398,12.4148844 L4.28259398,22.9281115 L0,22.9281115 L0,0.32467319 L6.52438506,0.32467319 L11.8737624,17.6096554 L11.9665261,17.6096554 L17.6405767,0.32467319 L24.1649617,0.32467319 L24.1649617,22.9281115 L19.6968402,22.9281115 L19.6968402,12.2293568 C19.6968402,11.5181679 19.709724,10.6987546 19.7354918,9.77111696 C19.7612595,8.84347927 19.7947575,7.9596467 19.8359858,7.11961924 C19.8772142,6.27959178 19.9081354,5.6482828 19.9287496,5.2256923 L19.789604,5.2256923 L13.9609472,22.9281115 L9.57012879,22.9281115 Z" id="Path"></path>
        <path d="M27.0097173,5.64312925 L32.1735671,5.64312925 L35.4357596,15.3678643 C35.5388304,15.6770769 35.6264407,15.991443 35.6985903,16.3109626 C35.7707399,16.6304823 35.8325824,16.960309 35.8841178,17.3004428 C35.9356532,17.6405767 35.9768816,17.9961711 36.0078028,18.3672262 L36.1005666,18.3672262 C36.1624091,17.8106436 36.2474426,17.2901358 36.355667,16.8057027 C36.4638914,16.3212697 36.6004602,15.8419903 36.7653736,15.3678643 L39.9657236,5.64312925 L45.021349,5.64312925 L37.7084719,25.1389813 C37.2652672,26.3346032 36.6880705,27.3318137 35.9768816,28.1306128 C35.2656927,28.9294119 34.4488562,29.5297997 33.526372,29.931776 C32.6038879,30.3337523 31.5912167,30.5347405 30.4883586,30.5347405 C29.9523902,30.5347405 29.4885713,30.506396 29.0969021,30.449707 C28.7052328,30.3930181 28.3702526,30.3337523 28.0919612,30.2719098 L28.0919612,26.5304378 C28.30841,26.5819732 28.5815478,26.6283551 28.9113745,26.6695835 C29.2412013,26.7108118 29.5864886,26.731426 29.9472366,26.731426 C30.6068901,26.731426 31.1737798,26.5922803 31.6479057,26.313989 C32.1220316,26.0356977 32.5188544,25.6620659 32.8383741,25.1930935 C33.1578937,24.7241211 33.4104173,24.2113436 33.5959448,23.654761 L33.8742362,22.8044264 L27.0097173,5.64312925 Z" id="Path"></path>
        <polygon id="Path" points="66.387937 22.9281115 61.610603 22.9281115 61.610603 13.1724551 52.6588993 13.1724551 52.6588993 22.9281115 47.8661046 22.9281115 47.8661046 0.32467319 52.6588993 0.32467319 52.6588993 9.18361309 61.610603 9.18361309 61.610603 0.32467319 66.387937 0.32467319"></polygon>
        <path d="M85.9301709,22.9281115 L84.2913444,17.5478129 L76.0508296,17.5478129 L74.412003,22.9281115 L69.2481532,22.9281115 L77.2258373,0.231909421 L83.0854154,0.231909421 L91.0940207,22.9281115 L85.9301709,22.9281115 Z M83.1472579,13.5280496 L81.5084313,8.27143603 C81.4053605,7.92099513 81.2687916,7.47006014 81.0987247,6.91863107 C80.9286578,6.367202 80.7585908,5.80546585 80.5885239,5.23342261 C80.418457,4.66137937 80.2818881,4.1640625 80.1788173,3.741472 C80.0757464,4.1640625 79.934024,4.68714708 79.75365,5.31072575 C79.573276,5.93430442 79.4006323,6.52438506 79.235719,7.08096767 C79.0708056,7.63755028 78.9522741,8.03437307 78.8801245,8.27143603 L77.2567586,13.5280496 L83.1472579,13.5280496 Z" id="Shape"></path>
        <path d="M103.539826,3.98884205 C102.622496,3.98884205 101.810813,4.16663927 101.104777,4.52223372 C100.398742,4.87782816 99.8060847,5.39060566 99.3268052,6.06056621 C98.8475257,6.73052676 98.484201,7.53963297 98.2368309,8.48788482 C97.9894609,9.43613668 97.8657758,10.50292 97.8657758,11.6882348 C97.8657758,13.2858331 98.0641872,14.6489451 98.46101,15.777571 C98.8578328,16.9061968 99.4736812,17.7668385 100.308555,18.3594959 C101.143429,18.9521533 102.220519,19.248482 103.539826,19.248482 C104.457157,19.248482 105.377064,19.1454111 106.299548,18.9392694 C107.222033,18.7331277 108.224397,18.4393758 109.306641,18.0580136 L109.306641,22.0777769 C108.306853,22.4900603 107.322527,22.786389 106.353661,22.966763 C105.384795,23.147137 104.297397,23.237324 103.091468,23.237324 C100.762067,23.237324 98.8475257,22.7554678 97.3478448,21.7917553 C95.8481639,20.8280428 94.7375754,19.4778146 94.0160794,17.7410707 C93.2945835,16.0043268 92.9338355,13.9764078 92.9338355,11.6573136 C92.9338355,9.94633741 93.1657449,8.37966043 93.6295637,6.95728264 C94.0933826,5.53490486 94.7736502,4.30320815 95.6703666,3.26219253 C96.5670831,2.2211769 97.6750948,1.41722424 98.9944017,0.850334545 C100.313709,0.283444848 101.82885,0 103.539826,0 C104.663299,0 105.789348,0.141722424 106.917974,0.425167273 C108.046599,0.708612121 109.126267,1.09770459 110.156975,1.59244469 L108.610912,5.48852297 C107.765731,5.08654664 106.915397,4.73610574 106.059909,4.43720026 C105.204421,4.13829479 104.364393,3.98884205 103.539826,3.98884205 Z" id="Path"></path>
        <path d="M123.715946,3.98884205 C122.798615,3.98884205 121.986932,4.16663927 121.280897,4.52223372 C120.574862,4.87782816 119.982204,5.39060566 119.502925,6.06056621 C119.023645,6.73052676 118.660321,7.53963297 118.412951,8.48788482 C118.165581,9.43613668 118.041895,10.50292 118.041895,11.6882348 C118.041895,13.2858331 118.240307,14.6489451 118.63713,15.777571 C119.033952,16.9061968 119.649801,17.7668385 120.484675,18.3594959 C121.319549,18.9521533 122.396639,19.248482 123.715946,19.248482 C124.633277,19.248482 125.553184,19.1454111 126.475668,18.9392694 C127.398152,18.7331277 128.400516,18.4393758 129.48276,18.0580136 L129.48276,22.0777769 C128.482973,22.4900603 127.498646,22.786389 126.52978,22.966763 C125.560914,23.147137 124.473517,23.237324 123.267588,23.237324 C120.938186,23.237324 119.023645,22.7554678 117.523964,21.7917553 C116.024284,20.8280428 114.913695,19.4778146 114.192199,17.7410707 C113.470703,16.0043268 113.109955,13.9764078 113.109955,11.6573136 C113.109955,9.94633741 113.341865,8.37966043 113.805683,6.95728264 C114.269502,5.53490486 114.94977,4.30320815 115.846486,3.26219253 C116.743203,2.2211769 117.851214,1.41722424 119.170521,0.850334545 C120.489828,0.283444848 122.00497,0 123.715946,0 C124.839418,0 125.965467,0.141722424 127.094093,0.425167273 C128.222719,0.708612121 129.302386,1.09770459 130.333095,1.59244469 L128.787032,5.48852297 C127.941851,5.08654664 127.091516,4.73610574 126.236028,4.43720026 C125.38054,4.13829479 124.540513,3.98884205 123.715946,3.98884205 Z" id="Path"></path>
        <path d="M141.511129,0.32467319 C144.428034,0.32467319 146.556447,0.950828628 147.896368,2.2031395 C149.236289,3.45545038 149.90625,5.17931041 149.90625,7.3747196 C149.90625,8.3641998 149.756797,9.30987488 149.457892,10.2117449 C149.158986,11.1136148 148.671977,11.9149907 147.996862,12.6158725 C147.321748,13.3167543 146.422455,13.8707602 145.298983,14.27789 C144.175511,14.6850199 142.789208,14.8885849 141.140074,14.8885849 L139.08381,14.8885849 L139.08381,22.9281115 L134.291016,22.9281115 L134.291016,0.32467319 L141.511129,0.32467319 Z M141.263759,4.25167273 L139.08381,4.25167273 L139.08381,10.9615853 L140.660794,10.9615853 C141.557511,10.9615853 142.335696,10.8430538 142.995349,10.6059909 C143.655003,10.3689279 144.165203,9.99787283 144.525951,9.49282565 C144.886699,8.98777847 145.067073,8.33843209 145.067073,7.54478651 C145.067073,6.43162129 144.757861,5.60447768 144.139436,5.0633557 C143.521011,4.52223372 142.562452,4.25167273 141.263759,4.25167273 Z" id="Shape"></path>
      </g>
    </g>
  </g>
</svg>