<svg width="23" height="23" viewBox="0 0 23 23" xmlns="http://www.w3.org/2000/svg" xmlns:xlink="http://www.w3.org/1999/xlink">
    <defs>
        <path id="a" d="M0 6.04h22.68v16.139H0z"/>
    </defs>
    <g fill="none" fill-rule="evenodd">
        <path d="M15.459 0h-8.74C5.73 0 4.93.924 4.93 2.063v2.866H17.25V2.063C17.25.923 16.448 0 15.459 0" fill="#FFF"/>
        <mask id="b" fill="#fff">
            <use xlink:href="#a"/>
        </mask>
        <path d="M16.213 19.006c0 .132-.11.24-.247.24h-8.97a.243.243 0 0 1-.247-.24v-4.2h9.464v4.2zM20.864 6.04H1.816C.813 6.04 0 6.827 0 7.8v8.417c0 .973.813 1.76 1.816 1.76h1.907v1.03c0 1.75 1.467 3.173 3.272 3.173h8.971c1.805 0 3.273-1.424 3.273-3.173v-1.03h1.625c1.003 0 1.816-.787 1.816-1.76V7.8c0-.973-.813-1.76-1.816-1.76z" fill="#FFF" mask="url(#b)"/>
    </g>
</svg>
