<svg width="32" height="26" viewBox="0 0 32 26" xmlns="http://www.w3.org/2000/svg">
    <path d="M7.092 25.752c2.027 0 3.73-.647 5.109-1.942s2.068-2.899 2.068-4.813c0-2.42-1.041-4.362-3.124-5.825L14.691 0H7.852L2.45 11.06c-.901 1.914-1.534 3.434-1.9 4.56C.183 16.746 0 17.843 0 18.913c0 1.97.675 3.602 2.026 4.897 1.351 1.295 3.04 1.942 5.066 1.942zm17.31 0c2.025 0 3.728-.647 5.107-1.942 1.38-1.295 2.069-2.899 2.069-4.813 0-2.42-1.042-4.362-3.124-5.825L32 0h-6.84l-5.403 11.06c-.9 1.914-1.534 3.434-1.9 4.56-.365 1.126-.548 2.223-.548 3.293 0 1.97.675 3.602 2.026 4.897 1.351 1.295 3.04 1.942 5.066 1.942z" fill="#007C75" fill-rule="nonzero"/>
</svg>
