<svg width="38" height="30" xmlns="http://www.w3.org/2000/svg">
  <path d="M8.781 29.844c2.332 0 4.291-.744 5.878-2.234 1.587-1.49 2.38-3.336 2.38-5.538 0-2.785-1.198-5.02-3.594-6.704L17.525.212h-7.87L3.438 12.939C2.4 15.142 1.673 16.89 1.252 18.186.83 19.48.62 20.744.62 21.975c0 2.267.777 4.145 2.332 5.635 1.554 1.49 3.497 2.234 5.83 2.234zm19.917 0c2.332 0 4.291-.744 5.878-2.234 1.587-1.49 2.38-3.336 2.38-5.538 0-2.785-1.198-5.02-3.595-6.704L37.442.212h-7.87l-6.218 12.727c-1.036 2.203-1.765 3.951-2.186 5.247-.42 1.295-.631 2.558-.631 3.789 0 2.267.777 4.145 2.332 5.635 1.554 1.49 3.497 2.234 5.829 2.234z" fill="#007C75"/>
</svg>
