<svg width="14px" height="14px" viewBox="0 0 14 14" version="1.1" xmlns="http://www.w3.org/2000/svg" xmlns:xlink="http://www.w3.org/1999/xlink">
  <title>external hover</title>
  <g id="external-hover" stroke="none" stroke-width="1" fill="none" fill-rule="evenodd">
    <g id="node-text--desktop" transform="translate(-1051.000000, -502.000000)" fill="#014B4C" fill-rule="nonzero">
      <g id="external" transform="translate(1051.000000, 502.000000)">
        <path d="M11.4545455,5.27272727 C11.1545455,5.27272727 10.9090909,5.51818182 10.9090909,5.81818182 L10.9090909,12.9090909 L1.09090909,12.9090909 L1.09090909,3.09090909 L8.18181818,3.09090909 C8.48181818,3.09090909 8.72727273,2.84545455 8.72727273,2.54545455 C8.72727273,2.24545455 8.48181818,2 8.18181818,2 L0.545454545,2 C0.245454545,2 0,2.24545455 0,2.54545455 L0,13.4545455 C0,13.7545455 0.245454545,14 0.545454545,14 L11.4545455,14 C11.7545455,14 12,13.7545455 12,13.4545455 L12,5.81818182 C12,5.51818182 11.7545455,5.27272727 11.4545455,5.27272727 Z" id="path-external-black"></path>
        <path d="M13.5,0 L10.5,0 C10.225,0 10,0.225 10,0.5 C10,0.775 10.225,1 10.5,1 L12.3,1 L7.15,6.15 C6.95,6.35 6.95,6.65 7.15,6.85 C7.25,6.95 7.375,7 7.5,7 C7.625,7 7.75,6.95 7.85,6.85 L13,1.7 L13,3.5 C13,3.775 13.225,4 13.5,4 C13.775,4 14,3.775 14,3.5 L14,0.5 C14,0.225 13.775,0 13.5,0 Z" id="path2-external-black"></path>
      </g>
    </g>
  </g>
</svg>