<svg width="51" height="51" xmlns="http://www.w3.org/2000/svg">
    <g fill="none" fill-rule="evenodd">
        <path d="M0 .94h50v50H0z"/>
        <path d="m30.95 39.73-9.55 3.21 3.18-9.55L35 22.94v-15a1 1 0 0 0-1-1h-5v-3a1 1 0 0 0-1-1H10a1 1 0 0 0-1 1v3H4a1 1 0 0 0-1 1v40a1 1 0 0 0 1 1h30a1 1 0 0 0 1-1V35.68l-4.05 4.05zM11 4.94h16v4H11v-4zM8.12 20.41a1.09 1.09 0 1 1 1.35-1.71l2.28 1.79 5-5a1.09 1.09 0 1 1 1.54 1.54l-5.69 5.68a1.09 1.09 0 0 1-1.44.08l-3.04-2.38zm10.38 3.9c.17.413.072.89-.25 1.2l-5.65 5.66a1.09 1.09 0 0 1-1.44.08l-3-2.39a1.09 1.09 0 1 1 1.35-1.71l2.24 1.79 5-5a1.09 1.09 0 0 1 1.78.34l-.03.03zm0 8.45c.17.413.072.89-.25 1.2l-5.65 5.66a1.09 1.09 0 0 1-1.44.08l-3-2.39a1.09 1.09 0 1 1 1.35-1.71l2.28 1.79 5-5a1.09 1.09 0 0 1 1.78.34l-.07.03zm31.17-10.33-6.37 6.36a1 1 0 0 1-1.41-1.41l5.66-5.66-.71-.71-17 17-5.3 1.77 1.77-5.3L45.78 15a2.503 2.503 0 0 1 3.54 3.54l-1.06 1.06 1.41 1.41a1 1 0 0 1 0 1.42z" fill="#FFF" fill-rule="nonzero"/>
    </g>
</svg>
